<svg xmlns="http://www.w3.org/2000/svg" width="126" height="126" viewBox="0 0 126 126">
  <g id="_1Star" data-name="1Star" transform="translate(-183 -201)">
    <circle id="Ellipse_1" data-name="Ellipse 1" cx="63" cy="63" r="63" transform="translate(183 201)" fill="#f50100"/>
    <circle id="Ellipse_2" data-name="Ellipse 2" cx="8.5" cy="8.5" r="8.5" transform="translate(212 252)" fill="#333"/>
    <circle id="Ellipse_4" data-name="Ellipse 4" cx="8.5" cy="8.5" r="8.5" transform="translate(263.533 252)" fill="#333"/>
    <path id="Path_1" data-name="Path 1" d="M365.534,351.5a3,3,0,0,1-1.091-5.8c.127-.05,12.769-5.075,20.548-15a3,3,0,1,1,4.722,3.7C380.9,345.656,367.2,351.071,366.62,351.3A2.992,2.992,0,0,1,365.534,351.5Z" transform="translate(-158 -88)" fill="#333"/>
    <path id="Path_1-2" data-name="Path 1" d="M387.351,351.5a3,3,0,0,0,1.091-5.8c-.127-.05-12.769-5.075-20.548-15a3,3,0,1,0-4.722,3.7c8.817,11.245,22.514,16.66,23.093,16.885A2.992,2.992,0,0,0,387.351,351.5Z" transform="translate(-102.352 -88)" fill="#333"/>
    <path id="Path_1-3" data-name="Path 1" d="M382.239,384.517a3,3,0,0,1-1.933-5.3c.24-.2,24.268-19.956,47.361.027a3,3,0,0,1-3.926,4.537c-19.267-16.674-38.752-.662-39.572.027A2.988,2.988,0,0,1,382.239,384.517Z" transform="translate(-158 -88)" fill="#333"/>
  </g>
</svg>
