<svg xmlns="http://www.w3.org/2000/svg" xmlns:xlink="http://www.w3.org/1999/xlink" width="25" height="25" viewBox="0 0 150 150"><defs><clipPath id="a"><rect width="150" height="150" transform="translate(411 450)" fill="#fff"/></clipPath></defs><g transform="translate(-411 -450)" clip-path="url(#a)"><path d="M2766.477,412.648h-68.093a1.878,1.878,0,0,0-.4.042h-67.688a1.627,1.627,0,0,1,0-3.229h68.094a1.886,1.886,0,0,0,.405-.044h67.688a1.628,1.628,0,0,1,0,3.23Zm-22.159,30.583-12.778,11.03-12.075-13.33,4.711-24.288h36.894Zm-5.469,19.1-4.627-5.11,7.94-6.854ZM2722.614,515l9.083-4.741-.212,8.494Zm-24.269,8.161-14.83-7.74,14.921-6.309,14.821,6.266Zm-33.062-4.365-.209-8.494,9.08,4.741Zm-2.738-61.527-4.627,5.11-3.314-11.965Zm52.93-16.738L2698.361,456.9l-17.068-16.327-4.63-23.885h21.721a1.906,1.906,0,0,0,.405-.044H2720.1Zm-.167,27.742-13.723-8.933,15.627-14.945,11.3,12.477Zm.32,30.009,14.076,8.511-11.86,6.191-15.184-6.423Zm-34.49.042,12.968,8.279-15.184,6.424-11.86-6.192Zm-17.219-10.994,13.465,8.6-12.579,7.607ZM2695,485.276l-13.8,8.344-15.8-10.086,15.722-10.233Zm20.653-12.02,15.722,10.236-15.8,10.086-13.8-8.344Zm-17.287,9.645-13.752-11.869,13.807-8.989,13.746,8.946Zm-18.807-38.465,15.628,14.948-13.723,8.93-13.206-11.4Zm-20.372,22.5,6.388-7.054,12.4,10.707-15.065,9.805Zm39.169,37.638-13.4-8.55,13.468-8.141,13.4,8.1Zm33.61-1.082-12.576-7.606,13.465-8.6Zm1.9-23.141-15.065-9.808,12.4-10.7,6.392,7.057Zm-98.159-63.66h36.891l4.711,24.287-12.075,13.33-12.778-11.027Zm130.776-11.263h-68.093a1.938,1.938,0,0,0-.4.043h-67.688a5.613,5.613,0,0,0,0,11.22h.687l18.1,28.724,10.655,38.471L2661,507.018l.363,14.807a2,2,0,0,0,2.777,1.791l14.608-6.178,18.714,9.765a1.931,1.931,0,0,0,.9.219,2.178,2.178,0,0,0,1.185-.382l18.483-9.648,14.608,6.179a1.968,1.968,0,0,0,.778.16,2,2,0,0,0,2-1.947l.362-14.788,1.268-23.161,10.659-38.47,18.091-28.722h.689a5.613,5.613,0,0,0,0-11.219" transform="translate(-2212.87 58.578)" fill="#fe1100"/></g></svg>