<?xml version="1.0" encoding="utf-8"?>
<!-- Generator: Adobe Illustrator 24.1.3, SVG Export Plug-In . SVG Version: 6.00 Build 0)  -->
<svg version="1.1" id="Layer_1" xmlns="http://www.w3.org/2000/svg" xmlns:xlink="http://www.w3.org/1999/xlink" x="0px" y="0px"
	 viewBox="0 0 1120 140" style="enable-background:new 0 0 1120 140;" xml:space="preserve">
<style type="text/css">
	.st0{fill:url(#SVGID_1_);}
	.st1{fill:url(#SVGID_2_);}
	.st2{fill:url(#SVGID_3_);}
	.st3{opacity:0.5;fill:url(#SVGID_4_);}
	.st4{opacity:0.5;fill:url(#SVGID_5_);}
	.st5{fill:url(#SVGID_6_);}
	.st6{fill:#AA351D;}
	.st7{fill:url(#SVGID_7_);}
	.st8{fill:#AF4733;}
	.st9{fill:url(#SVGID_8_);}
	.st10{fill:url(#SVGID_9_);}
	.st11{fill:url(#SVGID_10_);}
	.st12{fill:url(#SVGID_11_);}
	.st13{opacity:0.5;fill:url(#SVGID_12_);}
	.st14{opacity:0.5;fill:url(#SVGID_13_);}
	.st15{fill:url(#SVGID_14_);}
	.st16{fill:#006666;}
	.st17{fill:url(#SVGID_15_);}
	.st18{fill:#00CC66;}
	.st19{fill:url(#SVGID_16_);}
	.st20{fill:url(#SVGID_17_);}
	.st21{fill:url(#SVGID_18_);}
	.st22{fill:url(#SVGID_19_);}
	.st23{opacity:0.5;fill:url(#SVGID_20_);}
	.st24{opacity:0.5;fill:url(#SVGID_21_);}
	.st25{fill:url(#SVGID_22_);}
	.st26{fill:#FF9900;}
	.st27{fill:url(#SVGID_23_);}
	.st28{fill:#FFB533;}
	.st29{fill:url(#SVGID_24_);}
	.st30{fill:url(#SVGID_25_);}
	.st31{fill:url(#SVGID_26_);}
	.st32{fill:url(#SVGID_27_);}
	.st33{opacity:0.5;fill:url(#SVGID_28_);}
	.st34{opacity:0.5;fill:url(#SVGID_29_);}
	.st35{fill:url(#SVGID_30_);}
	.st36{fill:#CC0099;}
	.st37{fill:url(#SVGID_31_);}
	.st38{fill:#CC33CC;}
	.st39{fill:url(#SVGID_32_);}
	.st40{fill:url(#SVGID_33_);}
	.st41{fill:url(#SVGID_34_);}
	.st42{fill:url(#SVGID_35_);}
	.st43{opacity:0.5;fill:url(#SVGID_36_);}
	.st44{opacity:0.5;fill:url(#SVGID_37_);}
	.st45{fill:url(#SVGID_38_);}
	.st46{fill:#F22740;}
	.st47{fill:url(#SVGID_39_);}
	.st48{fill:#EF5467;}
	.st49{fill:url(#SVGID_40_);}
	.st50{fill:url(#SVGID_41_);}
	.st51{fill:url(#SVGID_42_);}
	.st52{fill:url(#SVGID_43_);}
	.st53{opacity:0.5;fill:url(#SVGID_44_);}
	.st54{opacity:0.5;fill:url(#SVGID_45_);}
	.st55{fill:url(#SVGID_46_);}
	.st56{fill:#06CCED;}
	.st57{fill:url(#SVGID_47_);}
	.st58{fill:#42AEEA;}
	.st59{fill:url(#SVGID_48_);}
	.st60{fill:url(#SVGID_49_);}
	.st61{fill:url(#SVGID_50_);}
	.st62{fill:url(#SVGID_51_);}
	.st63{opacity:0.55;fill:url(#SVGID_52_);}
	.st64{opacity:0.55;fill:url(#SVGID_53_);}
	.st65{fill:url(#SVGID_54_);}
	.st66{fill:#63D44A;}
	.st67{fill:url(#SVGID_55_);}
	.st68{fill:#51D830;}
	.st69{fill:url(#SVGID_56_);}
	.st70{fill:url(#SVGID_57_);}
	.st71{fill:url(#SVGID_58_);}
	.st72{fill:url(#SVGID_59_);}
	.st73{opacity:0.37;fill:url(#SVGID_60_);}
	.st74{opacity:0.37;fill:url(#SVGID_61_);}
	.st75{fill:url(#SVGID_62_);}
	.st76{fill:url(#SVGID_63_);}
	.st77{fill:url(#SVGID_64_);}
	.st78{fill:url(#SVGID_65_);}
	.st79{fill:url(#SVGID_66_);}
	.st80{fill:url(#SVGID_67_);}
	.st81{fill:url(#SVGID_68_);}
	.st82{fill:url(#SVGID_69_);}
	.st83{fill:url(#SVGID_70_);}
	.st84{fill:url(#SVGID_71_);}
</style>
<g>
	<linearGradient id="SVGID_1_" gradientUnits="userSpaceOnUse" x1="1086.7321" y1="53.8774" x2="1096.4948" y2="94.757">
		<stop  offset="0" style="stop-color:#30000B"/>
		<stop  offset="0.7758" style="stop-color:#861D0D"/>
	</linearGradient>
	<path class="st0" d="M1111.5,60.1l-39.2,40.4l1.8-43.6h38.8C1113.2,57.9,1112.6,59.5,1111.5,60.1z"/>
	<linearGradient id="SVGID_2_" gradientUnits="userSpaceOnUse" x1="1039.0037" y1="10.708" x2="1064.7661" y2="118.5844">
		<stop  offset="0" style="stop-color:#42000B"/>
		<stop  offset="0.8303" style="stop-color:#821F05"/>
	</linearGradient>
	<path class="st1" d="M1077.6,56.9l13.3,24.3l-39.2,40.4c-0.5,0.3-1,0.3-1.5,0.3c0,0-0.1,0-0.1,0h-0.1c-0.5,0-1.1,0-1.5-0.3
		l-59.7-61.4c-1.4-0.8-1.9-2.4-1-3.7l18.8-36.9c0-0.1,0.1-0.2,0.1-0.3c0.5-0.9,1.5-1.4,2.6-1.4h41.5l26.7,38.3l15.3-37.1
		c0.1,0.1,0.2,0.3,0.2,0.4c0,0.1,0.1-0.1,0.1-0.1l19.4,36.8c0.2,0.3,0.3,0.7,0.4,0.7H1077.6z"/>
	
		<linearGradient id="SVGID_3_" gradientUnits="userSpaceOnUse" x1="706.3491" y1="52.7818" x2="712.6356" y2="79.1058" gradientTransform="matrix(-1 0 0 1 1711.998 0)">
		<stop  offset="0" style="stop-color:#42000B"/>
		<stop  offset="0.8303" style="stop-color:#821F05"/>
	</linearGradient>
	<path class="st2" d="M988.8,60.4l20.6,21.1l12.6-24.8l-34.5,0.8C987.1,58.5,987.7,59.7,988.8,60.4z"/>
	<linearGradient id="SVGID_4_" gradientUnits="userSpaceOnUse" x1="1036.7555" y1="60.4557" x2="1039.4318" y2="42.0791">
		<stop  offset="0" style="stop-color:#30000B"/>
		<stop  offset="0.7758" style="stop-color:#861D0D"/>
	</linearGradient>
	<polygon class="st3" points="1078.7,57.1 998.8,36.2 1007.3,56.2 	"/>
	
		<linearGradient id="SVGID_5_" gradientUnits="userSpaceOnUse" x1="698.421" y1="60.4556" x2="701.0972" y2="42.079" gradientTransform="matrix(-1 0 0 1 1762.5 0)">
		<stop  offset="0" style="stop-color:#30000B"/>
		<stop  offset="0.7758" style="stop-color:#861D0D"/>
	</linearGradient>
	<polygon class="st4" points="1022.1,57.1 1102,36.2 1093.6,56.2 	"/>
	<linearGradient id="SVGID_6_" gradientUnits="userSpaceOnUse" x1="1070.5859" y1="13.1701" x2="1080.657" y2="55.3407">
		<stop  offset="0" style="stop-color:#30000B"/>
		<stop  offset="0.7758" style="stop-color:#861D0D"/>
	</linearGradient>
	<path class="st5" d="M1092.8,19l-15.3,37.1l-26.7-38.2h39.6C1091.5,17.9,1092.3,18.4,1092.8,19z"/>
	<path class="st6" d="M1093,19.4c0.2,1.4-10.9,37.5-10.9,37.5l-3.2-3.8L1093,19.4z"/>
	<linearGradient id="SVGID_7_" gradientUnits="userSpaceOnUse" x1="1037.1539" y1="40.3193" x2="1024.4827" y2="8.9754">
		<stop  offset="0" style="stop-color:#30000B"/>
		<stop  offset="0.7758" style="stop-color:#861D0D"/>
	</linearGradient>
	<path class="st7" d="M1008.5,19l12.9,37.7l29.1-38.9h-39.6C1009.9,17.9,1009,18.4,1008.5,19z"/>
	<path class="st6" d="M1008.3,18.9c-0.2,1.4,10,39.5,10,39.5l3-3.5L1008.3,18.9z"/>
	<polygon class="st6" points="1074.9,59.3 1113,57.6 1078,56.6 	"/>
	<path class="st6" d="M1090.9,82.5c0.2-1.4-8.8-24.6-8.8-24.6l-3,3.5L1090.9,82.5z"/>
	<polygon class="st6" points="1025.1,59.3 987,57.6 1023,56.6 	"/>
	<path class="st6" d="M1009.5,81.5c-0.2-1.4,9.8-25.6,9.8-25.6l3,3.5L1009.5,81.5z"/>
	<path class="st8" d="M1082.5,56.5L1051,18.6c-0.1,0.1-0.7-0.7-1.6,0.4l-31.5,37.5c-0.4,1.3-0.2,3,0.5,3.8l29.9,61.3
		c0.3,0.3,1.5,0.4,1.8,0.4c0,0,0,0,0,0c0,0,0,0,0,0c0.3,0,1.6,0,1.8-0.3l29.9-61.4C1082.7,59.5,1082.9,57.8,1082.5,56.5z"/>
	<linearGradient id="SVGID_8_" gradientUnits="userSpaceOnUse" x1="1088.3041" y1="49.6501" x2="1009.968" y2="91.0117">
		<stop  offset="0" style="stop-color:#30000B"/>
		<stop  offset="0.7758" style="stop-color:#861D0D"/>
	</linearGradient>
	<path class="st9" d="M1079,57.5l-27.2-32.6c-0.7-0.9-1.3-1.5-1.8-0.7l-27.9,33.4c-0.4,1.2-0.2,2.7,0.5,3.4l27.3,54.1
		c0.2,0.2,0.5,0.3,0.7,0.3c0,0,0,0,0,0c0,0,0,0,0,0c0.2,0,0.5-0.1,0.7-0.3l27.3-54.1C1079.2,60.2,1079.4,58.7,1079,57.5z"/>
</g>
<g>
	<linearGradient id="SVGID_9_" gradientUnits="userSpaceOnUse" x1="946.7365" y1="53.9932" x2="956.4903" y2="94.8359">
		<stop  offset="0" style="stop-color:#000066"/>
		<stop  offset="0.8303" style="stop-color:#006699"/>
	</linearGradient>
	<path class="st10" d="M971.5,60.1l-39.2,40.5l1.8-43.6h38.8C973.2,58,972.6,59.5,971.5,60.1z"/>
	<linearGradient id="SVGID_10_" gradientUnits="userSpaceOnUse" x1="899.0157" y1="10.8114" x2="924.7586" y2="118.6057">
		<stop  offset="0" style="stop-color:#000066"/>
		<stop  offset="0.8303" style="stop-color:#006699"/>
	</linearGradient>
	<path class="st11" d="M937.6,57L951,81.3l-39.2,40.3c-0.5,0.3-1,0.4-1.5,0.3c0,0-0.1,0.1-0.1,0.1h-0.1c-0.5,0-1.1-0.1-1.5-0.4
		l-59.7-61.4c-1.4-0.8-1.9-2.4-1-3.7l18.8-36.9c0-0.1,0.1-0.2,0.1-0.2c0.5-0.9,1.5-1.4,2.6-1.4h41.5l26.7,38.3l15.3-37.1
		c0.1,0.1,0.2,0.2,0.2,0.4c0,0.1,0.1-0.1,0.1-0.1l19.4,36.8c0.2,0.3,0.3,0.7,0.4,0.7H937.6z"/>
	
		<linearGradient id="SVGID_11_" gradientUnits="userSpaceOnUse" x1="846.3491" y1="52.7415" x2="852.6356" y2="79.0655" gradientTransform="matrix(-1 0 0 1 1711.998 0)">
		<stop  offset="0" style="stop-color:#000066"/>
		<stop  offset="0.8303" style="stop-color:#006699"/>
	</linearGradient>
	<path class="st12" d="M848.8,60.3l20.6,21.1l12.6-24.8l-34.5,0.8C847.1,58.5,847.7,59.7,848.8,60.3z"/>
	<linearGradient id="SVGID_12_" gradientUnits="userSpaceOnUse" x1="896.7555" y1="60.4154" x2="899.4318" y2="42.0388">
		<stop  offset="0" style="stop-color:#000066"/>
		<stop  offset="0.8303" style="stop-color:#006699"/>
	</linearGradient>
	<polygon class="st13" points="938.7,57 858.8,36.1 867.3,56.1 	"/>
	
		<linearGradient id="SVGID_13_" gradientUnits="userSpaceOnUse" x1="838.421" y1="60.4153" x2="841.0972" y2="42.0387" gradientTransform="matrix(-1 0 0 1 1762.5 0)">
		<stop  offset="0" style="stop-color:#000066"/>
		<stop  offset="0.8303" style="stop-color:#006699"/>
	</linearGradient>
	<polygon class="st14" points="882.1,57 962,36.1 953.6,56.1 	"/>
	<linearGradient id="SVGID_14_" gradientUnits="userSpaceOnUse" x1="930.5948" y1="13.2849" x2="940.6569" y2="55.4186">
		<stop  offset="0" style="stop-color:#000066"/>
		<stop  offset="0.8303" style="stop-color:#0000FF"/>
	</linearGradient>
	<path class="st15" d="M952.8,19.1l-15.3,37.1L910.9,18h39.6C951.5,18,952.3,18.4,952.8,19.1z"/>
	<path class="st16" d="M953,19.4c0.2,1.4-10.9,37.5-10.9,37.5L939,53L953,19.4z"/>
	<linearGradient id="SVGID_15_" gradientUnits="userSpaceOnUse" x1="897.1479" y1="40.4017" x2="884.4794" y2="9.0648">
		<stop  offset="0" style="stop-color:#000066"/>
		<stop  offset="0.8303" style="stop-color:#0000FF"/>
	</linearGradient>
	<path class="st17" d="M868.5,19.1l12.9,37.8L910.5,18h-39.6C869.9,18,869,18.4,868.5,19.1z"/>
	<path class="st16" d="M868.3,18.9c-0.2,1.4,10,39.5,10,39.5l3-3.5L868.3,18.9z"/>
	<polygon class="st16" points="934.9,59.2 973,57.5 938,56.5 	"/>
	<path class="st16" d="M950.9,82.5c0.2-1.4-8.8-24.6-8.8-24.6l-3,3.5L950.9,82.5z"/>
	<polygon class="st16" points="885.1,59.2 847,57.5 883,56.5 	"/>
	<path class="st16" d="M869.5,81.5c-0.2-1.4,9.8-25.6,9.8-25.6l3,3.5L869.5,81.5z"/>
	<path class="st18" d="M942.5,56.5L911,18.5c-0.1,0.1-0.7-0.7-1.6,0.4l-31.5,37.5c-0.4,1.3-0.2,3,0.5,3.8l29.9,61.3
		c0.3,0.3,1.5,0.4,1.8,0.4c0,0,0,0,0,0c0,0,0,0,0,0c0.3,0,1.6,0,1.8-0.3l29.9-61.4C942.7,59.5,942.9,57.8,942.5,56.5z"/>
	<linearGradient id="SVGID_16_" gradientUnits="userSpaceOnUse" x1="948.304" y1="49.6099" x2="869.968" y2="90.9713">
		<stop  offset="0" style="stop-color:#000066"/>
		<stop  offset="0.8303" style="stop-color:#006699"/>
	</linearGradient>
	<path class="st19" d="M939,57.5l-27.2-32.6c-0.7-0.9-1.3-1.5-1.8-0.7l-27.9,33.4c-0.4,1.2-0.2,2.7,0.5,3.4l27.3,54.1
		c0.2,0.2,0.5,0.3,0.7,0.3c0,0,0,0,0,0c0,0,0,0,0,0c0.2,0,0.5-0.1,0.7-0.3l27.3-54.1C939.2,60.1,939.4,58.6,939,57.5z"/>
</g>
<g>
	<linearGradient id="SVGID_17_" gradientUnits="userSpaceOnUse" x1="806.7415" y1="53.942" x2="816.4852" y2="94.7422">
		<stop  offset="0" style="stop-color:#850A03"/>
		<stop  offset="0.8303" style="stop-color:#DB0D00"/>
	</linearGradient>
	<path class="st20" d="M831.5,60l-39.2,40.5l1.8-43.5h38.8C833.2,58,832.6,59.4,831.5,60z"/>
	<linearGradient id="SVGID_18_" gradientUnits="userSpaceOnUse" x1="759.0291" y1="10.7428" x2="784.7572" y2="118.4752">
		<stop  offset="0" style="stop-color:#8A1C24"/>
		<stop  offset="0.8905" style="stop-color:#FF1400"/>
	</linearGradient>
	<path class="st21" d="M797.6,57L811,81.1l-39.2,40.3c-0.5,0.3-1,0.4-1.5,0.4c0,0-0.1,0.1-0.1,0.1h-0.1c-0.5,0-1.1-0.2-1.5-0.5
		L708.9,60c-1.4-0.8-1.9-2.4-1-3.8l18.8-36.9c0-0.1,0.1-0.1,0.1-0.1c0.5-0.9,1.5-1.3,2.6-1.3h41.5l26.7,38.2L812.8,19
		c0.1,0.1,0.2,0.2,0.2,0.3c0,0.1,0.1-0.2,0.1-0.1l19.4,36.9c0.2,0.3,0.3,0.8,0.4,0.8H797.6z"/>
	
		<linearGradient id="SVGID_19_" gradientUnits="userSpaceOnUse" x1="986.3491" y1="52.5099" x2="992.6356" y2="78.8339" gradientTransform="matrix(-1 0 0 1 1711.998 0)">
		<stop  offset="0" style="stop-color:#850A03"/>
		<stop  offset="0.8303" style="stop-color:#DB0D00"/>
	</linearGradient>
	<path class="st22" d="M708.8,60.1l20.6,21.1l12.6-24.8l-34.5,0.8C707.1,58.3,707.7,59.5,708.8,60.1z"/>
	<linearGradient id="SVGID_20_" gradientUnits="userSpaceOnUse" x1="756.7555" y1="60.1838" x2="759.4318" y2="41.8072">
		<stop  offset="0" style="stop-color:#FF4733"/>
		<stop  offset="0.8303" style="stop-color:#FF9400"/>
	</linearGradient>
	<polygon class="st23" points="798.7,56.8 718.8,35.9 727.3,55.9 	"/>
	
		<linearGradient id="SVGID_21_" gradientUnits="userSpaceOnUse" x1="978.421" y1="60.1837" x2="981.0972" y2="41.8071" gradientTransform="matrix(-1 0 0 1 1762.5 0)">
		<stop  offset="0" style="stop-color:#FF4733"/>
		<stop  offset="0.8303" style="stop-color:#FF9400"/>
	</linearGradient>
	<polygon class="st24" points="742.1,56.8 822,35.9 813.6,55.9 	"/>
	<linearGradient id="SVGID_22_" gradientUnits="userSpaceOnUse" x1="790.6052" y1="13.2324" x2="800.6572" y2="55.3236">
		<stop  offset="0" style="stop-color:#8A1C24"/>
		<stop  offset="0.8905" style="stop-color:#FF1400"/>
	</linearGradient>
	<path class="st25" d="M812.8,18.9l-15.3,37.2L770.9,18h39.6C811.5,18,812.3,18.3,812.8,18.9z"/>
	<path class="st26" d="M813,19.1c0.2,1.4-10.9,37.5-10.9,37.5l-3.2-3.8L813,19.1z"/>
	<linearGradient id="SVGID_23_" gradientUnits="userSpaceOnUse" x1="757.1405" y1="40.3107" x2="744.4729" y2="8.9763">
		<stop  offset="0" style="stop-color:#8A1C24"/>
		<stop  offset="0.8905" style="stop-color:#FF1400"/>
	</linearGradient>
	<path class="st27" d="M728.5,18.9l12.9,37.8L770.5,18h-39.6C729.9,18,729,18.3,728.5,18.9z"/>
	<path class="st26" d="M728.3,18.6c-0.2,1.4,10,39.5,10,39.5l3-3.5L728.3,18.6z"/>
	<polygon class="st26" points="794.9,59 833,57.3 798,56.3 	"/>
	<path class="st26" d="M810.9,82.3c0.2-1.4-8.8-24.6-8.8-24.6l-3,3.5L810.9,82.3z"/>
	<polygon class="st26" points="745.1,59 707,57.3 743,56.3 	"/>
	<path class="st26" d="M729.5,81.3c-0.2-1.4,9.8-25.6,9.8-25.6l3,3.5L729.5,81.3z"/>
	<path class="st28" d="M802.5,56.2L771,18.3c-0.1,0.1-0.7-0.7-1.6,0.4l-31.5,37.5c-0.4,1.3-0.2,3,0.5,3.8l29.9,61.3
		c0.3,0.3,1.5,0.4,1.8,0.4c0,0,0,0,0,0c0,0,0,0,0,0c0.3,0,1.6,0,1.8-0.3L801.9,60C802.7,59.2,802.9,57.5,802.5,56.2z"/>
	<linearGradient id="SVGID_24_" gradientUnits="userSpaceOnUse" x1="808.3041" y1="49.3782" x2="729.968" y2="90.7397">
		<stop  offset="0" style="stop-color:#8A1C24"/>
		<stop  offset="0.8905" style="stop-color:#FF1400"/>
	</linearGradient>
	<path class="st29" d="M799,57.3l-27.2-32.6c-0.7-0.9-1.3-1.5-1.8-0.7l-27.9,33.4c-0.4,1.2-0.2,2.7,0.5,3.4l27.3,54.1
		c0.2,0.2,0.5,0.3,0.7,0.3c0,0,0,0,0,0c0,0,0,0,0,0c0.2,0,0.5-0.1,0.7-0.3l27.3-54.1C799.2,59.9,799.4,58.4,799,57.3z"/>
</g>
<g>
	<linearGradient id="SVGID_25_" gradientUnits="userSpaceOnUse" x1="666.7442" y1="54.0414" x2="676.4825" y2="94.8193">
		<stop  offset="0" style="stop-color:#330066"/>
		<stop  offset="0.8303" style="stop-color:#990099"/>
	</linearGradient>
	<path class="st30" d="M691.5,60l-39.2,40.5l1.8-43.5h38.8C693.2,58,692.6,59.4,691.5,60z"/>
	<linearGradient id="SVGID_26_" gradientUnits="userSpaceOnUse" x1="619.0356" y1="10.8319" x2="644.7658" y2="118.5731">
		<stop  offset="0" style="stop-color:#330066"/>
		<stop  offset="0.8303" style="stop-color:#990099"/>
	</linearGradient>
	<path class="st31" d="M657.6,57L671,81.2l-39.2,40.3c-0.5,0.3-1,0.5-1.5,0.5c0,0-0.1,0.2-0.1,0.2h-0.1c-0.5,0-1.1-0.3-1.5-0.5
		l-59.7-61.5c-1.4-0.8-1.9-2.4-1-3.8l18.8-36.9c0-0.1,0.1,0,0.1-0.1c0.5-0.9,1.5-1.2,2.6-1.2h41.5l26.7,38.1L672.8,19
		c0.1,0.1,0.2,0.2,0.2,0.3c0,0.1,0.1-0.2,0.1-0.1l19.4,37c0.2,0.3,0.3,0.9,0.4,0.9H657.6z"/>
	
		<linearGradient id="SVGID_27_" gradientUnits="userSpaceOnUse" x1="1126.3491" y1="52.5161" x2="1132.6356" y2="78.8401" gradientTransform="matrix(-1 0 0 1 1711.998 0)">
		<stop  offset="0" style="stop-color:#330066"/>
		<stop  offset="0.8303" style="stop-color:#990099"/>
	</linearGradient>
	<path class="st32" d="M568.8,60.1l20.6,21.1l12.6-24.8l-34.5,0.8C567.1,58.3,567.7,59.5,568.8,60.1z"/>
	<linearGradient id="SVGID_28_" gradientUnits="userSpaceOnUse" x1="616.7555" y1="60.19" x2="619.4318" y2="41.8134">
		<stop  offset="0" style="stop-color:#990099"/>
		<stop  offset="0.8303" style="stop-color:#CC33CC"/>
	</linearGradient>
	<polygon class="st33" points="658.7,56.8 578.8,35.9 587.3,55.9 	"/>
	
		<linearGradient id="SVGID_29_" gradientUnits="userSpaceOnUse" x1="1118.4209" y1="60.1899" x2="1121.0973" y2="41.8133" gradientTransform="matrix(-1 0 0 1 1762.5 0)">
		<stop  offset="0" style="stop-color:#990099"/>
		<stop  offset="0.8303" style="stop-color:#CC33CC"/>
	</linearGradient>
	<polygon class="st34" points="602.1,56.8 682,35.9 673.6,55.9 	"/>
	<linearGradient id="SVGID_30_" gradientUnits="userSpaceOnUse" x1="650.6105" y1="13.3312" x2="660.6572" y2="55.4001">
		<stop  offset="0" style="stop-color:#330066"/>
		<stop  offset="0.8303" style="stop-color:#990099"/>
	</linearGradient>
	<path class="st35" d="M672.8,19l-15.3,37.2L630.9,18h39.6C671.5,18,672.3,18.3,672.8,19z"/>
	<path class="st36" d="M673,19.1c0.2,1.4-10.9,37.5-10.9,37.5l-3.2-3.8L673,19.1z"/>
	<linearGradient id="SVGID_31_" gradientUnits="userSpaceOnUse" x1="617.1364" y1="40.3887" x2="604.4686" y2="9.0538">
		<stop  offset="0" style="stop-color:#330066"/>
		<stop  offset="0.8303" style="stop-color:#990099"/>
	</linearGradient>
	<path class="st37" d="M588.5,19l12.9,37.8L630.5,18h-39.6C589.9,18,589,18.3,588.5,19z"/>
	<path class="st36" d="M588.3,18.6c-0.2,1.4,10,39.5,10,39.5l3-3.5L588.3,18.6z"/>
	<polygon class="st36" points="654.9,59 693,57.3 658,56.3 	"/>
	<path class="st36" d="M670.9,82.3c0.2-1.4-8.8-24.6-8.8-24.6l-3,3.5L670.9,82.3z"/>
	<polygon class="st36" points="605.1,59 567,57.3 603,56.3 	"/>
	<path class="st36" d="M589.5,81.3c-0.2-1.4,9.8-25.6,9.8-25.6l3,3.5L589.5,81.3z"/>
	<path class="st38" d="M662.5,56.2L631,18.3c-0.1,0.1-0.7-0.7-1.6,0.4l-31.5,37.5c-0.4,1.3-0.2,3,0.5,3.8l29.9,61.3
		c0.3,0.3,1.5,0.4,1.8,0.4c0,0,0,0,0,0c0,0,0,0,0,0c0.3,0,1.6,0,1.8-0.3L661.9,60C662.7,59.3,662.9,57.5,662.5,56.2z"/>
	<linearGradient id="SVGID_32_" gradientUnits="userSpaceOnUse" x1="668.3041" y1="49.3844" x2="589.968" y2="90.746">
		<stop  offset="0" style="stop-color:#330066"/>
		<stop  offset="0.8303" style="stop-color:#990099"/>
	</linearGradient>
	<path class="st39" d="M659,57.3l-27.2-32.6c-0.7-0.9-1.3-1.5-1.8-0.7l-27.9,33.4c-0.4,1.2-0.2,2.7,0.5,3.4l27.3,54.1
		c0.2,0.2,0.5,0.3,0.7,0.3c0,0,0,0,0,0c0,0,0,0,0,0c0.2,0,0.5-0.1,0.7-0.3l27.3-54.1C659.2,59.9,659.4,58.4,659,57.3z"/>
</g>
<g>
	<linearGradient id="SVGID_33_" gradientUnits="userSpaceOnUse" x1="526.7468" y1="53.9973" x2="536.4799" y2="94.7531">
		<stop  offset="0" style="stop-color:#780B00"/>
		<stop  offset="0.8303" style="stop-color:#E8054F"/>
	</linearGradient>
	<path class="st40" d="M551.5,59.9l-39.2,40.6l1.8-43.5h38.8C553.2,58,552.6,59.3,551.5,59.9z"/>
	<linearGradient id="SVGID_34_" gradientUnits="userSpaceOnUse" x1="479.0421" y1="10.7763" x2="504.7746" y2="118.5275">
		<stop  offset="0" style="stop-color:#290000"/>
		<stop  offset="0.5758" style="stop-color:#750000"/>
	</linearGradient>
	<path class="st41" d="M517.6,57L531,81.1l-39.2,40.2c-0.5,0.3-1,0.5-1.5,0.5c0,0-0.1,0.2-0.1,0.2h-0.1c-0.5,0-1.1-0.3-1.5-0.6
		l-59.7-61.5c-1.4-0.8-1.9-2.5-1-3.8l18.8-36.9c0-0.1,0.1,0,0.1,0c0.5-0.9,1.5-1.2,2.6-1.2h41.5l26.7,38.1l15.3-37.2
		c0.1,0.1,0.2,0.2,0.2,0.3c0,0.1,0.1-0.2,0.1-0.1l19.4,37c0.2,0.3,0.3,0.9,0.4,0.9H517.6z"/>
	
		<linearGradient id="SVGID_35_" gradientUnits="userSpaceOnUse" x1="1266.3491" y1="52.377" x2="1272.6356" y2="78.701" gradientTransform="matrix(-1 0 0 1 1711.998 0)">
		<stop  offset="0" style="stop-color:#780B00"/>
		<stop  offset="0.8303" style="stop-color:#E8054F"/>
	</linearGradient>
	<path class="st42" d="M428.8,59.9l20.6,21.1l12.6-24.8L427.4,57C427.1,58.1,427.7,59.3,428.8,59.9z"/>
	<linearGradient id="SVGID_36_" gradientUnits="userSpaceOnUse" x1="476.7555" y1="60.0509" x2="479.4318" y2="41.6743">
		<stop  offset="0" style="stop-color:#780B00"/>
		<stop  offset="0.8303" style="stop-color:#E8054F"/>
	</linearGradient>
	<polygon class="st43" points="518.7,56.7 438.8,35.8 447.3,55.8 	"/>
	
		<linearGradient id="SVGID_37_" gradientUnits="userSpaceOnUse" x1="1258.4209" y1="60.0508" x2="1261.0973" y2="41.6742" gradientTransform="matrix(-1 0 0 1 1762.5 0)">
		<stop  offset="0" style="stop-color:#780B00"/>
		<stop  offset="0.8303" style="stop-color:#E8054F"/>
	</linearGradient>
	<polygon class="st44" points="462.1,56.7 542,35.8 533.6,55.8 	"/>
	<linearGradient id="SVGID_38_" gradientUnits="userSpaceOnUse" x1="510.6159" y1="13.2865" x2="520.6573" y2="55.3333">
		<stop  offset="0" style="stop-color:#290000"/>
		<stop  offset="0.5758" style="stop-color:#750000"/>
	</linearGradient>
	<path class="st45" d="M532.8,18.9l-15.3,37.2L490.9,18h39.6C531.5,18,532.3,18.2,532.8,18.9z"/>
	<path class="st46" d="M533,19c0.2,1.4-10.9,37.5-10.9,37.5l-3.2-3.8L533,19z"/>
	<linearGradient id="SVGID_39_" gradientUnits="userSpaceOnUse" x1="477.132" y1="40.3229" x2="464.4634" y2="8.986">
		<stop  offset="0" style="stop-color:#290000"/>
		<stop  offset="0.5758" style="stop-color:#750000"/>
	</linearGradient>
	<path class="st47" d="M448.5,18.9l12.9,37.9L490.5,18h-39.6C449.9,18,449,18.2,448.5,18.9z"/>
	<path class="st46" d="M448.3,18.5c-0.2,1.4,10,39.5,10,39.5l3-3.5L448.3,18.5z"/>
	<polygon class="st46" points="514.9,58.9 553,57.2 518,56.2 	"/>
	<path class="st46" d="M530.9,82.1c0.2-1.4-8.8-24.6-8.8-24.6l-3,3.5L530.9,82.1z"/>
	<polygon class="st46" points="465.1,58.9 427,57.2 463,56.2 	"/>
	<path class="st46" d="M449.5,81.1c-0.2-1.4,9.8-25.6,9.8-25.6l3,3.5L449.5,81.1z"/>
	<path class="st48" d="M522.5,56.1L491,18.2c-0.1,0.1-0.7-0.7-1.6,0.4l-31.5,37.5c-0.4,1.3-0.2,3,0.5,3.8l29.9,61.3
		c0.3,0.3,1.5,0.4,1.8,0.4c0,0,0,0,0,0c0,0,0,0,0,0c0.3,0,1.6,0,1.8-0.3l29.9-61.4C522.7,59.1,522.9,57.4,522.5,56.1z"/>
	<linearGradient id="SVGID_40_" gradientUnits="userSpaceOnUse" x1="528.3041" y1="49.2453" x2="449.968" y2="90.6068">
		<stop  offset="0" style="stop-color:#290000"/>
		<stop  offset="0.5758" style="stop-color:#750000"/>
	</linearGradient>
	<path class="st49" d="M519,57.1l-27.2-32.6c-0.7-0.9-1.3-1.5-1.8-0.7l-27.9,33.4c-0.4,1.2-0.2,2.7,0.5,3.4l27.3,54.1
		c0.2,0.2,0.5,0.3,0.7,0.3c0,0,0,0,0,0c0,0,0,0,0,0c0.2,0,0.5-0.1,0.7-0.3l27.3-54.1C519.2,59.8,519.4,58.3,519,57.1z"/>
</g>
<g>
	<linearGradient id="SVGID_41_" gradientUnits="userSpaceOnUse" x1="386.7438" y1="54.0414" x2="396.4829" y2="94.8222">
		<stop  offset="0" style="stop-color:#004ABC"/>
		<stop  offset="1" style="stop-color:#0081DE"/>
	</linearGradient>
	<path class="st50" d="M411.5,60l-39.2,40.5l1.8-43.5h38.8C413.2,58,412.6,59.4,411.5,60z"/>
	<linearGradient id="SVGID_42_" gradientUnits="userSpaceOnUse" x1="339.0349" y1="10.833" x2="364.7649" y2="118.5733">
		<stop  offset="0" style="stop-color:#0000FF"/>
		<stop  offset="0.8303" style="stop-color:#0071BC"/>
	</linearGradient>
	<path class="st51" d="M377.6,57L391,81.2l-39.2,40.3c-0.5,0.3-1,0.5-1.5,0.5c0,0-0.1,0.2-0.1,0.2h-0.1c-0.5,0-1.1-0.2-1.5-0.5
		l-59.7-61.5c-1.4-0.8-1.9-2.4-1-3.8l18.8-36.9c0-0.1,0.1,0,0.1-0.1c0.5-0.9,1.5-1.2,2.6-1.2h41.5l26.7,38.1L392.8,19
		c0.1,0.1,0.2,0.2,0.2,0.3c0,0.1,0.1-0.2,0.1-0.1l19.4,37c0.2,0.3,0.3,0.9,0.4,0.9H377.6z"/>
	
		<linearGradient id="SVGID_43_" gradientUnits="userSpaceOnUse" x1="1406.3491" y1="52.5259" x2="1412.6356" y2="78.8499" gradientTransform="matrix(-1 0 0 1 1711.998 0)">
		<stop  offset="0" style="stop-color:#004ABC"/>
		<stop  offset="1" style="stop-color:#0081DE"/>
	</linearGradient>
	<path class="st52" d="M288.8,60.1l20.6,21.1l12.6-24.8l-34.5,0.8C287.1,58.3,287.7,59.5,288.8,60.1z"/>
	<linearGradient id="SVGID_44_" gradientUnits="userSpaceOnUse" x1="336.7555" y1="60.1998" x2="339.4318" y2="41.8232">
		<stop  offset="0" style="stop-color:#004ABC"/>
		<stop  offset="1" style="stop-color:#0081DE"/>
	</linearGradient>
	<polygon class="st53" points="378.7,56.8 298.8,35.9 307.3,55.9 	"/>
	
		<linearGradient id="SVGID_45_" gradientUnits="userSpaceOnUse" x1="1398.4209" y1="60.1997" x2="1401.0973" y2="41.8231" gradientTransform="matrix(-1 0 0 1 1762.5 0)">
		<stop  offset="0" style="stop-color:#004ABC"/>
		<stop  offset="1" style="stop-color:#0081DE"/>
	</linearGradient>
	<polygon class="st54" points="322.1,56.8 402,35.9 393.6,55.9 	"/>
	<linearGradient id="SVGID_46_" gradientUnits="userSpaceOnUse" x1="370.61" y1="13.3313" x2="380.6574" y2="55.403">
		<stop  offset="0" style="stop-color:#004ABC"/>
		<stop  offset="1" style="stop-color:#0081DE"/>
	</linearGradient>
	<path class="st55" d="M392.8,19l-15.3,37.2L350.9,18h39.6C391.5,18,392.3,18.3,392.8,19z"/>
	<path class="st56" d="M393,19.2c0.2,1.4-10.9,37.5-10.9,37.5l-3.2-3.8L393,19.2z"/>
	<linearGradient id="SVGID_47_" gradientUnits="userSpaceOnUse" x1="337.1368" y1="40.3915" x2="324.469" y2="9.0565">
		<stop  offset="0" style="stop-color:#004ABC"/>
		<stop  offset="1" style="stop-color:#0081DE"/>
	</linearGradient>
	<path class="st57" d="M308.5,19l12.9,37.8L350.5,18h-39.6C309.9,18,309,18.3,308.5,19z"/>
	<path class="st56" d="M308.3,18.7c-0.2,1.4,10,39.5,10,39.5l3-3.5L308.3,18.7z"/>
	<polygon class="st56" points="374.9,59 413,57.3 378,56.3 	"/>
	<path class="st56" d="M390.9,82.3c0.2-1.4-8.8-24.6-8.8-24.6l-3,3.5L390.9,82.3z"/>
	<polygon class="st56" points="325.1,59 287,57.3 323,56.3 	"/>
	<path class="st56" d="M309.5,81.3c-0.2-1.4,9.8-25.6,9.8-25.6l3,3.5L309.5,81.3z"/>
	<path class="st58" d="M382.5,56.2L351,18.3c-0.1,0.1-0.7-0.7-1.6,0.4l-31.5,37.5c-0.4,1.3-0.2,3,0.5,3.8l29.9,61.3
		c0.3,0.3,1.5,0.4,1.8,0.4c0,0,0,0,0,0c0,0,0,0,0,0c0.3,0,1.6,0,1.8-0.3L381.9,60C382.7,59.3,382.9,57.6,382.5,56.2z"/>
	<linearGradient id="SVGID_48_" gradientUnits="userSpaceOnUse" x1="374.9015" y1="46.9462" x2="280.4062" y2="133.9423">
		<stop  offset="0" style="stop-color:#004ABC"/>
		<stop  offset="1" style="stop-color:#0081DE"/>
	</linearGradient>
	<path class="st59" d="M379,57.3l-27.2-32.6c-0.7-0.9-1.3-1.5-1.8-0.7l-27.9,33.4c-0.4,1.2-0.2,2.7,0.5,3.4l27.3,54.1
		c0.2,0.2,0.5,0.3,0.7,0.3c0,0,0,0,0,0c0,0,0,0,0,0c0.2,0,0.5-0.1,0.7-0.3l27.3-54.1C379.2,59.9,379.4,58.4,379,57.3z"/>
</g>
<g>
	<linearGradient id="SVGID_49_" gradientUnits="userSpaceOnUse" x1="246.7468" y1="53.9973" x2="256.4799" y2="94.7531">
		<stop  offset="0" style="stop-color:#003B14"/>
		<stop  offset="1" style="stop-color:#178A1C"/>
	</linearGradient>
	<path class="st60" d="M271.5,59.9l-39.2,40.6l1.8-43.5h38.8C273.2,58,272.6,59.3,271.5,59.9z"/>
	<linearGradient id="SVGID_50_" gradientUnits="userSpaceOnUse" x1="199.0421" y1="10.7763" x2="224.7746" y2="118.5275">
		<stop  offset="0" style="stop-color:#004D14"/>
		<stop  offset="0.8303" style="stop-color:#009245"/>
	</linearGradient>
	<path class="st61" d="M237.6,57L251,81.1l-39.2,40.2c-0.5,0.3-1,0.5-1.5,0.5c0,0-0.1,0.2-0.1,0.2h-0.1c-0.5,0-1.1-0.3-1.5-0.6
		l-59.7-61.5c-1.4-0.8-1.9-2.5-1-3.8l18.8-36.9c0-0.1,0.1,0,0.1,0c0.5-0.9,1.5-1.2,2.6-1.2h41.5l26.7,38.1l15.3-37.2
		c0.1,0.1,0.2,0.2,0.2,0.3c0,0.1,0.1-0.2,0.1-0.1l19.4,37c0.2,0.3,0.3,0.9,0.4,0.9H237.6z"/>
	
		<linearGradient id="SVGID_51_" gradientUnits="userSpaceOnUse" x1="1546.3491" y1="52.377" x2="1552.6356" y2="78.701" gradientTransform="matrix(-1 0 0 1 1711.998 0)">
		<stop  offset="0" style="stop-color:#004D14"/>
		<stop  offset="0.8303" style="stop-color:#009245"/>
	</linearGradient>
	<path class="st62" d="M148.8,59.9l20.6,21.1l12.6-24.8L147.4,57C147.1,58.1,147.7,59.3,148.8,59.9z"/>
	<linearGradient id="SVGID_52_" gradientUnits="userSpaceOnUse" x1="196.7555" y1="60.0509" x2="199.4318" y2="41.6743">
		<stop  offset="0" style="stop-color:#003B14"/>
		<stop  offset="1" style="stop-color:#178A1C"/>
	</linearGradient>
	<polygon class="st63" points="238.7,56.7 158.8,35.8 167.3,55.8 	"/>
	
		<linearGradient id="SVGID_53_" gradientUnits="userSpaceOnUse" x1="1538.4209" y1="60.0508" x2="1541.0973" y2="41.6742" gradientTransform="matrix(-1 0 0 1 1762.5 0)">
		<stop  offset="0" style="stop-color:#003B14"/>
		<stop  offset="1" style="stop-color:#178A1C"/>
	</linearGradient>
	<polygon class="st64" points="182.1,56.7 262,35.8 253.6,55.8 	"/>
	<linearGradient id="SVGID_54_" gradientUnits="userSpaceOnUse" x1="230.6159" y1="13.2865" x2="240.6573" y2="55.3333">
		<stop  offset="0" style="stop-color:#003B14"/>
		<stop  offset="1" style="stop-color:#178A1C"/>
	</linearGradient>
	<path class="st65" d="M252.8,18.9l-15.3,37.2L210.9,18h39.6C251.5,18,252.3,18.2,252.8,18.9z"/>
	<path class="st66" d="M253,19c0.2,1.4-10.9,37.5-10.9,37.5l-3.2-3.8L253,19z"/>
	<linearGradient id="SVGID_55_" gradientUnits="userSpaceOnUse" x1="197.132" y1="40.3229" x2="184.4634" y2="8.986">
		<stop  offset="0" style="stop-color:#003B14"/>
		<stop  offset="1" style="stop-color:#178A1C"/>
	</linearGradient>
	<path class="st67" d="M168.5,18.9l12.9,37.9L210.5,18h-39.6C169.9,18,169,18.2,168.5,18.9z"/>
	<path class="st66" d="M168.3,18.5c-0.2,1.4,10,39.5,10,39.5l3-3.5L168.3,18.5z"/>
	<polygon class="st66" points="234.9,58.9 273,57.2 238,56.2 	"/>
	<path class="st66" d="M250.9,82.1c0.2-1.4-8.8-24.6-8.8-24.6l-3,3.5L250.9,82.1z"/>
	<polygon class="st66" points="185.1,58.9 147,57.2 183,56.2 	"/>
	<path class="st66" d="M169.5,81.1c-0.2-1.4,9.8-25.6,9.8-25.6l3,3.5L169.5,81.1z"/>
	<path class="st68" d="M242.5,56.1L211,18.2c-0.1,0.1-0.7-0.7-1.6,0.4l-31.5,37.5c-0.4,1.3-0.2,3,0.5,3.8l29.9,61.3
		c0.3,0.3,1.5,0.4,1.8,0.4c0,0,0,0,0,0c0,0,0,0,0,0c0.3,0,1.6,0,1.8-0.3l29.9-61.4C242.7,59.1,242.9,57.4,242.5,56.1z"/>
	<linearGradient id="SVGID_56_" gradientUnits="userSpaceOnUse" x1="248.3041" y1="49.2453" x2="169.968" y2="90.6068">
		<stop  offset="0" style="stop-color:#003B14"/>
		<stop  offset="1" style="stop-color:#178A1C"/>
	</linearGradient>
	<path class="st69" d="M239,57.1l-27.2-32.6c-0.7-0.9-1.3-1.5-1.8-0.7l-27.9,33.4c-0.4,1.2-0.2,2.7,0.5,3.4l27.3,54.1
		c0.2,0.2,0.5,0.3,0.7,0.3c0,0,0,0,0,0c0,0,0,0,0,0c0.2,0,0.5-0.1,0.7-0.3l27.3-54.1C239.2,59.8,239.4,58.3,239,57.1z"/>
</g>
<g>
	<linearGradient id="SVGID_57_" gradientUnits="userSpaceOnUse" x1="106.7495" y1="54.0001" x2="116.4773" y2="94.7338">
		<stop  offset="0.1075" style="stop-color:#FF1E91"/>
		<stop  offset="1" style="stop-color:#FFC2FF"/>
	</linearGradient>
	<path class="st70" d="M131.5,59.9l-39.2,40.6L94.1,57h38.8C133.2,58,132.6,59.3,131.5,59.9z"/>
	<linearGradient id="SVGID_58_" gradientUnits="userSpaceOnUse" x1="59.0482" y1="10.7664" x2="84.7834" y2="118.5288">
		<stop  offset="0" style="stop-color:#8F008F"/>
		<stop  offset="0.8303" style="stop-color:#FF1E91"/>
	</linearGradient>
	<path class="st71" d="M97.6,57L111,81l-39.2,40.2c-0.5,0.3-1,0.5-1.5,0.5c0,0-0.1,0.2-0.1,0.2h-0.1c-0.5,0-1.1-0.3-1.5-0.6
		L8.9,59.9c-1.4-0.8-1.9-2.5-1-3.8l18.8-36.9c0-0.1,0.1,0.1,0.1,0c0.5-0.9,1.5-1.1,2.6-1.1h41.5l26.7,38l15.3-37.2
		c0.1,0.1,0.2,0.2,0.2,0.3c0,0.1,0.1-0.2,0.1-0.1l19.4,37c0.2,0.3,0.3,1,0.4,1H97.6z"/>
	
		<linearGradient id="SVGID_59_" gradientUnits="userSpaceOnUse" x1="1686.3491" y1="52.2857" x2="1692.6356" y2="78.6097" gradientTransform="matrix(-1 0 0 1 1711.998 0)">
		<stop  offset="0.1075" style="stop-color:#FF1E91"/>
		<stop  offset="1" style="stop-color:#FFC2FF"/>
	</linearGradient>
	<path class="st72" d="M8.8,59.9L29.3,81l12.6-24.8L7.4,56.9C7.1,58,7.7,59.2,8.8,59.9z"/>
	<linearGradient id="SVGID_60_" gradientUnits="userSpaceOnUse" x1="56.7555" y1="59.9596" x2="59.4318" y2="41.583">
		<stop  offset="0" style="stop-color:#FF1E91"/>
		<stop  offset="1" style="stop-color:#FFC2FF"/>
	</linearGradient>
	<polygon class="st73" points="98.7,56.6 18.8,35.7 27.3,55.7 	"/>
	
		<linearGradient id="SVGID_61_" gradientUnits="userSpaceOnUse" x1="1678.421" y1="59.9596" x2="1681.0973" y2="41.583" gradientTransform="matrix(-1 0 0 1 1762.5 0)">
		<stop  offset="0" style="stop-color:#FF1E91"/>
		<stop  offset="1" style="stop-color:#FFC2FF"/>
	</linearGradient>
	<polygon class="st74" points="42.1,56.6 122,35.7 113.6,55.7 	"/>
	<linearGradient id="SVGID_62_" gradientUnits="userSpaceOnUse" x1="90.6212" y1="13.2886" x2="100.6573" y2="55.3132">
		<stop  offset="0" style="stop-color:#8F008F"/>
		<stop  offset="0.8303" style="stop-color:#FF1E91"/>
	</linearGradient>
	<path class="st75" d="M112.8,18.8L97.5,56.1L70.9,18h39.6C111.5,18,112.3,18.2,112.8,18.8z"/>
	<linearGradient id="SVGID_63_" gradientUnits="userSpaceOnUse" x1="91.399" y1="60.3331" x2="97.3444" y2="52.0094">
		<stop  offset="0" style="stop-color:#FF1E91"/>
		<stop  offset="1" style="stop-color:#FF9EFF"/>
	</linearGradient>
	<path class="st76" d="M113,18.9c0.2,1.4-10.9,37.5-10.9,37.5L99,52.6L113,18.9z"/>
	<linearGradient id="SVGID_64_" gradientUnits="userSpaceOnUse" x1="57.1276" y1="40.3037" x2="44.4575" y2="8.9632">
		<stop  offset="0" style="stop-color:#8F008F"/>
		<stop  offset="0.8303" style="stop-color:#FF1E91"/>
	</linearGradient>
	<path class="st77" d="M28.5,18.8l12.9,37.9L70.5,18H30.8C29.9,18,29,18.2,28.5,18.8z"/>
	
		<linearGradient id="SVGID_65_" gradientUnits="userSpaceOnUse" x1="1797.0302" y1="61.4998" x2="1803.1504" y2="52.9313" gradientTransform="matrix(-1 0 0 1 1847.0039 0)">
		<stop  offset="0" style="stop-color:#FF1E91"/>
		<stop  offset="1" style="stop-color:#FF9EFF"/>
	</linearGradient>
	<path class="st78" d="M28.3,18.4c-0.2,1.4,10,39.5,10,39.5l3-3.5L28.3,18.4z"/>
	<linearGradient id="SVGID_66_" gradientUnits="userSpaceOnUse" x1="113.94" y1="58.9539" x2="113.94" y2="57.1361">
		<stop  offset="0" style="stop-color:#FF1E91"/>
		<stop  offset="1" style="stop-color:#FF9EFF"/>
	</linearGradient>
	<polygon class="st79" points="94.9,58.8 133,57.1 98,56.1 	"/>
	
		<linearGradient id="SVGID_67_" gradientUnits="userSpaceOnUse" x1="219.3703" y1="40.2339" x2="223.4256" y2="34.5563" gradientTransform="matrix(1 0 0 -1 -123.8809 94.5)">
		<stop  offset="0" style="stop-color:#FF1E91"/>
		<stop  offset="1" style="stop-color:#FF9EFF"/>
	</linearGradient>
	<path class="st80" d="M110.9,82c0.2-1.4-8.8-24.6-8.8-24.6l-3,3.5L110.9,82z"/>
	
		<linearGradient id="SVGID_68_" gradientUnits="userSpaceOnUse" x1="1840.6517" y1="58.9539" x2="1840.6517" y2="57.1361" gradientTransform="matrix(-1 0 0 1 1866.707 0)">
		<stop  offset="0" style="stop-color:#FF1E91"/>
		<stop  offset="1" style="stop-color:#FF9EFF"/>
	</linearGradient>
	<polygon class="st81" points="45.1,58.8 7,57.1 43,56.1 	"/>
	
		<linearGradient id="SVGID_69_" gradientUnits="userSpaceOnUse" x1="1800.9449" y1="42.5924" x2="1805.2255" y2="36.5996" gradientTransform="matrix(-1 0 0 -1 1847.0039 94.5)">
		<stop  offset="0" style="stop-color:#FF1E91"/>
		<stop  offset="1" style="stop-color:#FF9EFF"/>
	</linearGradient>
	<path class="st82" d="M29.5,81c-0.2-1.4,9.8-25.6,9.8-25.6l3,3.5L29.5,81z"/>
	<linearGradient id="SVGID_70_" gradientUnits="userSpaceOnUse" x1="113.3383" y1="47.2855" x2="23.2025" y2="94.8773">
		<stop  offset="6.060610e-02" style="stop-color:#FF7AF5"/>
		<stop  offset="0.903" style="stop-color:#FF9CDB"/>
	</linearGradient>
	<path class="st83" d="M102.5,56L71,18.1c-0.1,0.1-0.7-0.7-1.6,0.4L37.9,56c-0.4,1.3-0.2,3,0.5,3.8l29.9,61.3
		c0.3,0.3,1.5,0.4,1.8,0.4c0,0,0,0,0,0c0,0,0,0,0,0c0.3,0,1.6,0,1.8-0.3l29.9-61.4C102.7,59,102.9,57.3,102.5,56z"/>
	<linearGradient id="SVGID_71_" gradientUnits="userSpaceOnUse" x1="108.3044" y1="49.1541" x2="29.968" y2="90.5158">
		<stop  offset="6.060610e-02" style="stop-color:#9C0091"/>
		<stop  offset="0.903" style="stop-color:#D100DB"/>
	</linearGradient>
	<path class="st84" d="M99,57L71.8,24.4c-0.7-0.9-1.3-1.5-1.8-0.7L42.1,57c-0.4,1.2-0.2,2.7,0.5,3.4l27.3,54.1
		c0.2,0.2,0.5,0.3,0.7,0.3c0,0,0,0,0,0c0,0,0,0,0,0c0.2,0,0.5-0.1,0.7-0.3l27.3-54.1C99.2,59.7,99.4,58.2,99,57z"/>
</g>
</svg>
