<?xml version="1.0" encoding="utf-8"?>
<!-- Generator: Adobe Illustrator 24.1.3, SVG Export Plug-In . SVG Version: 6.00 Build 0)  -->
<svg version="1.1" id="Layer_1" xmlns="http://www.w3.org/2000/svg" xmlns:xlink="http://www.w3.org/1999/xlink" x="0px" y="0px"
	 viewBox="0 0 1120 140" style="enable-background:new 0 0 1120 140;" xml:space="preserve">
<style type="text/css">
	.st0{fill:url(#SVGID_1_);}
	.st1{fill:#E5157D;}
	.st2{fill:url(#SVGID_2_);}
	.st3{fill:url(#SVGID_3_);}
	.st4{fill:url(#SVGID_4_);}
	.st5{fill:url(#SVGID_5_);}
	.st6{fill:url(#SVGID_6_);}
	.st7{fill:url(#SVGID_7_);}
	.st8{fill:url(#SVGID_8_);}
	.st9{fill:url(#SVGID_9_);}
	.st10{fill:#FF9900;}
	.st11{fill:url(#SVGID_10_);}
	.st12{fill:url(#SVGID_11_);}
	.st13{fill:#FFB533;}
	.st14{fill:url(#SVGID_12_);}
	.st15{fill:url(#SVGID_13_);}
	.st16{fill:url(#SVGID_14_);}
	.st17{fill:url(#SVGID_15_);}
	.st18{fill:url(#SVGID_16_);}
	.st19{fill:url(#SVGID_17_);}
	.st20{fill:url(#SVGID_18_);}
	.st21{fill:url(#SVGID_19_);}
	.st22{fill:url(#SVGID_20_);}
	.st23{fill:url(#SVGID_21_);}
	.st24{fill:url(#SVGID_22_);}
	.st25{fill:#CC0099;}
	.st26{fill:url(#SVGID_23_);}
	.st27{fill:url(#SVGID_24_);}
	.st28{fill:#CC33CC;}
	.st29{fill:url(#SVGID_25_);}
	.st30{fill:url(#SVGID_26_);}
	.st31{fill:url(#SVGID_27_);}
	.st32{fill:url(#SVGID_28_);}
	.st33{fill:url(#SVGID_29_);}
	.st34{fill:url(#SVGID_30_);}
	.st35{fill:url(#SVGID_31_);}
	.st36{fill:url(#SVGID_32_);}
	.st37{fill:url(#SVGID_33_);}
	.st38{fill:url(#SVGID_34_);}
	.st39{fill:url(#SVGID_35_);}
	.st40{fill:#06CCED;}
	.st41{fill:url(#SVGID_36_);}
	.st42{fill:#51D830;}
	.st43{fill:#42AEEA;}
	.st44{fill:url(#SVGID_37_);}
	.st45{fill:url(#SVGID_38_);}
	.st46{fill:url(#SVGID_39_);}
	.st47{fill:url(#SVGID_40_);}
	.st48{fill:url(#SVGID_41_);}
	.st49{fill:url(#SVGID_42_);}
	.st50{fill:url(#SVGID_43_);}
	.st51{fill:url(#SVGID_44_);}
	.st52{fill:url(#SVGID_45_);}
	.st53{fill:url(#SVGID_46_);}
	.st54{fill:url(#SVGID_47_);}
	.st55{fill:#006666;}
	.st56{fill:url(#SVGID_48_);}
	.st57{fill:#00CC66;}
	.st58{fill:url(#SVGID_49_);}
	.st59{fill:url(#SVGID_50_);}
	.st60{fill:url(#SVGID_51_);}
	.st61{fill:url(#SVGID_52_);}
	.st62{fill:url(#SVGID_53_);}
	.st63{fill:url(#SVGID_54_);}
	.st64{fill:url(#SVGID_55_);}
	.st65{fill:url(#SVGID_56_);}
	.st66{fill:url(#SVGID_57_);}
	.st67{fill:url(#SVGID_58_);}
	.st68{fill:url(#SVGID_59_);}
	.st69{fill:#FF3300;}
	.st70{fill:url(#SVGID_60_);}
	.st71{fill:url(#SVGID_61_);}
	.st72{fill:url(#SVGID_62_);}
	.st73{fill:url(#SVGID_63_);}
	.st74{fill:url(#SVGID_64_);}
	.st75{fill:url(#SVGID_65_);}
	.st76{fill:url(#SVGID_66_);}
	.st77{fill:url(#SVGID_67_);}
	.st78{fill:url(#SVGID_68_);}
	.st79{fill:url(#SVGID_69_);}
	.st80{fill:url(#SVGID_70_);}
	.st81{fill:url(#SVGID_71_);}
	.st82{fill:url(#SVGID_72_);}
	.st83{fill:url(#SVGID_73_);}
	.st84{fill:url(#SVGID_74_);}
	.st85{fill:url(#SVGID_75_);}
	.st86{fill:url(#SVGID_76_);}
	.st87{fill:url(#SVGID_77_);}
	.st88{fill:url(#SVGID_78_);}
	.st89{fill:url(#SVGID_79_);}
	.st90{fill:url(#SVGID_80_);}
	.st91{fill:url(#SVGID_81_);}
	.st92{fill:url(#SVGID_82_);}
	.st93{fill:url(#SVGID_83_);}
	.st94{fill:url(#SVGID_84_);}
	.st95{fill:url(#SVGID_85_);}
	.st96{fill:url(#SVGID_86_);}
	.st97{fill:url(#SVGID_87_);}
	.st98{fill:url(#SVGID_88_);}
	.st99{fill:url(#SVGID_89_);}
	.st100{fill:url(#SVGID_90_);}
	.st101{fill:url(#SVGID_91_);}
	.st102{fill:url(#SVGID_92_);}
	.st103{fill:url(#SVGID_93_);}
	.st104{fill:url(#SVGID_94_);}
	.st105{fill:url(#SVGID_95_);}
	.st106{fill:url(#SVGID_96_);}
	.st107{fill:url(#SVGID_97_);}
	.st108{fill:url(#SVGID_98_);}
	.st109{fill:url(#SVGID_99_);}
	.st110{fill:url(#SVGID_100_);}
	.st111{fill:url(#SVGID_101_);}
	.st112{fill:url(#SVGID_102_);}
	.st113{fill:url(#SVGID_103_);}
	.st114{fill:url(#SVGID_104_);}
	.st115{fill:url(#SVGID_105_);}
	.st116{fill:url(#SVGID_106_);}
	.st117{fill:url(#SVGID_107_);}
	.st118{fill:url(#SVGID_108_);}
	.st119{fill:url(#SVGID_109_);}
	.st120{fill:#F22740;}
	.st121{fill:url(#SVGID_110_);}
	.st122{fill:url(#SVGID_111_);}
	.st123{fill:#EF5467;}
	.st124{fill:url(#SVGID_112_);}
	.st125{fill:url(#SVGID_113_);}
</style>
<g>
	<linearGradient id="SVGID_1_" gradientUnits="userSpaceOnUse" x1="763.5875" y1="73.1751" x2="827.7798" y2="45.2312">
		<stop  offset="0" style="stop-color:#8A1C24"/>
		<stop  offset="0.8905" style="stop-color:#FF1400"/>
	</linearGradient>
	<path class="st0" d="M804.5,90.1l-33.7-19l-0.1,0.1l-0.1-0.1l-34.1,20.5c-1.5-2.6-1.3-4.1-1.3-4.1s0-24.8,0-32.3
		c0-1.9,0.4-3.5,0.8-4.7l25.8,13.1l9.7,3.7l32.7-17c0.5,1.3,1,3,1,5c0,7.5,0,32.3,0,32.3S805.2,88.5,804.5,90.1z"/>
	<polygon class="st1" points="770.7,71.2 736.4,91.6 770.5,71.2 	"/>
	<linearGradient id="SVGID_2_" gradientUnits="userSpaceOnUse" x1="772.8675" y1="97.5197" x2="734.2008" y2="126.0198">
		<stop  offset="0" style="stop-color:#850A03"/>
		<stop  offset="0.8303" style="stop-color:#DB0D00"/>
	</linearGradient>
	<path class="st2" d="M788.8,81.2l-18,46.1c-0.1,0-0.1,0-0.2,0c-0.2,0-0.3,0-0.5,0v-56l0.4-0.3l0.1,0.1L788.8,81.2z"/>
	<linearGradient id="SVGID_3_" gradientUnits="userSpaceOnUse" x1="736.3902" y1="99.355" x2="770.1002" y2="99.355">
		<stop  offset="0" style="stop-color:#850A03"/>
		<stop  offset="0.8303" style="stop-color:#DB0D00"/>
	</linearGradient>
	<path class="st3" d="M770.1,71.4v56c-0.2,0-0.4,0-0.5,0c-1.9-0.3-4.1-2.8-4.1-2.8s-21.8-24.8-26.2-29.4c-1.3-1.4-2.2-2.9-2.9-3.9h0
		L770.1,71.4z"/>
	<linearGradient id="SVGID_4_" gradientUnits="userSpaceOnUse" x1="770.1002" y1="39.9149" x2="786.9107" y2="39.9149">
		<stop  offset="0" style="stop-color:#850A03"/>
		<stop  offset="0.8303" style="stop-color:#DB0D00"/>
	</linearGradient>
	<path class="st4" d="M786.9,59.1l-15.5,8.1l-1.3-0.5v-54c1.2,0,2.5,0.4,3.2,1.2c0.9,1,1.8,2,2.7,2.9L786.9,59.1z"/>
	<linearGradient id="SVGID_5_" gradientUnits="userSpaceOnUse" x1="757.1995" y1="11.0181" x2="751.8756" y2="52.8496">
		<stop  offset="0" style="stop-color:#850A03"/>
		<stop  offset="0.8303" style="stop-color:#DB0D00"/>
	</linearGradient>
	<path class="st5" d="M770.1,12.7l0,24.4L736.9,51l-1-0.5c0.8-2.2,2-3.3,2-3.3s13-15.9,29-33.3C767.7,13,768.9,12.7,770.1,12.7z"/>
	<linearGradient id="SVGID_6_" gradientUnits="userSpaceOnUse" x1="764.7964" y1="58.3497" x2="764.0826" y2="63.9588">
		<stop  offset="0" style="stop-color:#8F008F"/>
		<stop  offset="0.8303" style="stop-color:#FF1E91"/>
	</linearGradient>
	<polygon class="st6" points="769.6,64.5 770.1,58.4 770.1,66.7 761.8,63.5 758,61.6 	"/>
	<linearGradient id="SVGID_7_" gradientUnits="userSpaceOnUse" x1="775.9498" y1="37.9354" x2="804.1295" y2="37.9354">
		<stop  offset="0" style="stop-color:#870824"/>
		<stop  offset="0.8303" style="stop-color:#FF4500"/>
	</linearGradient>
	<path class="st7" d="M804.1,50.1l-17.2,9l-11-42.3c14.8,16.2,26.3,30.4,26.3,30.4S803.3,48.1,804.1,50.1z"/>
	<linearGradient id="SVGID_8_" gradientUnits="userSpaceOnUse" x1="781.0901" y1="102.6526" x2="837.0896" y2="60.653">
		<stop  offset="0" style="stop-color:#850A03"/>
		<stop  offset="0.8303" style="stop-color:#DB0D00"/>
	</linearGradient>
	<path class="st8" d="M804.6,89.9c0,0-0.9,2.3-3.9,5.4c-4.4,4.6-26.1,29.2-26.1,29.2s-2,2.3-3.8,2.8l17-46.9L804.6,89.9z"/>
	<linearGradient id="SVGID_9_" gradientUnits="userSpaceOnUse" x1="756.157" y1="35.0798" x2="752.6867" y2="62.3473">
		<stop  offset="0" style="stop-color:#870824"/>
		<stop  offset="0.8303" style="stop-color:#FF4500"/>
	</linearGradient>
	<polygon class="st9" points="770.1,36.9 770.1,58.4 769.6,64.5 758,61.6 736.9,51 	"/>
	<path class="st10" d="M736,50.4c1.3,0.5,15.9,7.8,15.9,7.8l-0.4,2.6L736,50.4z"/>
	<path class="st10" d="M736.4,91.6c1.3-0.5,15.4-8.5,15.4-8.5l-0.4-2.6L736.4,91.6z"/>
	<path class="st10" d="M804.1,50.1c-1.3,0.5-16.5,7.4-16.5,7.4l1,2.4L804.1,50.1z"/>
	<path class="st10" d="M770.1,127.2c0.2-1.4,1-25.6,1-25.6l-2,0.1L770.1,127.2z"/>
	<path class="st10" d="M804.6,89.9c-1.3-0.5-16.4-7.8-16.4-7.8l0.4-2.6L804.6,89.9z"/>
	<path class="st10" d="M770.1,12.7c0.2,1.4,1,24.8,1,24.8l-2-0.1L770.1,12.7z"/>
	<g>
		<linearGradient id="SVGID_10_" gradientUnits="userSpaceOnUse" x1="757.9827" y1="88.1194" x2="771.7308" y2="67.4972">
			<stop  offset="6.060610e-02" style="stop-color:#FF7AF5"/>
			<stop  offset="0.903" style="stop-color:#FF9CDB"/>
		</linearGradient>
		<path class="st11" d="M788.3,80.7c0,0-0.3-15.9-0.2-20.3c0.1-2.3-1.4-3.6-1.4-3.6s-7.7-9.2-16-19.3c-0.8-0.9-0.5-0.9-1.2,0
			c-5,6-9.7,11.7-12.7,15.3c-2.1,2.5-3.5,3.6-3.5,3.6s-1.8,1.8-1.8,4.9c0,4.3,0.1,19.8,0.1,19.8s-0.1,1.2,2.3,3.5
			c2.5,2.5,13.6,15.2,15.4,17c0.9,0.9,1.2-0.1,1.2-0.1s5.2-5.6,9.6-10.5c2.6-2.9,5-5.5,5.9-6.5C788.4,81.9,788.3,80.7,788.3,80.7z"
			/>
		<path class="st13" d="M770,103.2l-0.3-0.2c-0.3,0-0.4-0.7-0.7-1.1c-0.8-0.8-3.3-3.6-6.2-6.8c-3.7-4.1-7.8-8.3-9.2-9.7
			c-2.4-2.4-2.5-4.2-2.5-4.4c0-0.1-0.1-15.5-0.1-19.8c0-3.3,1.9-5.2,2-5.2c0.1,0,1.8-2,3.8-4.4c3-3.6,7.5-8.8,12.5-14.8
			c0.1-0.1,0.1,0,0.1-0.1c0.2-0.3,0.4-0.4,0.8-0.4c0.3,0,0.7,0.4,1,0.7c0.1,0.1,0.2,0.2,0.3,0.3c8.3,10.1,16.8,19.5,16.8,19.5
			c1.3,1,1,0.5,0.9,3c-0.1,4.3,0.3,20.9,0.3,21.1c0,0.2,0.4,0.6-2,3.3c-0.9,1-4.4,4.4-6.9,7.2c-4.1,4.5-8.9,9.7-9.5,10.4
			C770.8,102.2,770.5,103.2,770,103.2z"/>
	</g>
	<linearGradient id="SVGID_11_" gradientUnits="userSpaceOnUse" x1="773.154" y1="65.4852" x2="755.3735" y2="89.1002">
		<stop  offset="0" style="stop-color:#850A03"/>
		<stop  offset="0.8303" style="stop-color:#DB0D00"/>
	</linearGradient>
	<path class="st12" d="M779.6,89.9c-4.2,4.6-8.7,9.5-8.7,9.5s-1.1,0.7-1.7,0c-1.5-1.8-12-13.1-14.1-15.7c-1.9-2.2-1.9-3.3-1.9-3.3
		s0-15.5,0-19.6c0-2.5,1.3-3.4,1.3-3.4s1.2-1.4,3.2-3.8L779.6,89.9z"/>
	<linearGradient id="SVGID_12_" gradientUnits="userSpaceOnUse" x1="773.5906" y1="78.8868" x2="770.5906" y2="27.387">
		<stop  offset="0" style="stop-color:#850A03"/>
		<stop  offset="0.8303" style="stop-color:#DB0D00"/>
	</linearGradient>
	<path class="st14" d="M785.2,83.8c-0.8,0.9-3.1,3.4-5.5,6.1l-22.1-36.2c2.9-3.4,7-8,11.5-13.8c0.4-0.5,1.5-0.8,2.2,0
		c7.9,9.5,14.5,17.5,14.5,17.5s1.3,1.2,1.3,3.4c-0.1,4.1,0.2,19.1,0.2,19.1S787.4,81.2,785.2,83.8z"/>
</g>
<g>
	<linearGradient id="SVGID_13_" gradientUnits="userSpaceOnUse" x1="595.0903" y1="70.8797" x2="665.1011" y2="70.8797">
		<stop  offset="0" style="stop-color:#330066"/>
		<stop  offset="0.8303" style="stop-color:#990099"/>
	</linearGradient>
	<path class="st15" d="M664.5,90.1l-33.7-19l-0.1,0.1l-0.1-0.1l-34.1,20.5c-1.5-2.6-1.3-4.1-1.3-4.1s0-24.8,0-32.3
		c0-1.9,0.4-3.5,0.8-4.7l25.8,13.1l9.7,3.7l32.7-17c0.5,1.3,1,3,1,5c0,7.5,0,32.3,0,32.3S665.2,88.5,664.5,90.1z"/>
	<polygon class="st1" points="630.7,71.2 596.4,91.6 630.5,71.2 	"/>
	<linearGradient id="SVGID_14_" gradientUnits="userSpaceOnUse" x1="632.8676" y1="97.5196" x2="594.2009" y2="126.0198">
		<stop  offset="0" style="stop-color:#660099"/>
		<stop  offset="0.8303" style="stop-color:#990033"/>
	</linearGradient>
	<path class="st16" d="M648.8,81.2l-18,46.1c-0.1,0-0.1,0-0.2,0c-0.2,0-0.3,0-0.5,0v-56l0.4-0.3l0.1,0.1L648.8,81.2z"/>
	<linearGradient id="SVGID_15_" gradientUnits="userSpaceOnUse" x1="596.3902" y1="99.355" x2="630.1002" y2="99.355">
		<stop  offset="0" style="stop-color:#660099"/>
		<stop  offset="0.8303" style="stop-color:#990099"/>
	</linearGradient>
	<path class="st17" d="M630.1,71.4v56c-0.2,0-0.4,0-0.5,0c-1.9-0.3-4.1-2.8-4.1-2.8s-21.8-24.7-26.2-29.3c-1.3-1.4-2.2-2.9-2.9-3.9
		h0L630.1,71.4z"/>
	<linearGradient id="SVGID_16_" gradientUnits="userSpaceOnUse" x1="630.1002" y1="39.9149" x2="646.9107" y2="39.9149">
		<stop  offset="0" style="stop-color:#660099"/>
		<stop  offset="0.8303" style="stop-color:#990099"/>
	</linearGradient>
	<path class="st18" d="M646.9,59.1l-15.5,8.1l-1.3-0.5v-54c1.2,0,2.5,0.4,3.2,1.2c0.9,1,1.8,2,2.7,2.9L646.9,59.1z"/>
	<linearGradient id="SVGID_17_" gradientUnits="userSpaceOnUse" x1="617.1995" y1="11.0181" x2="611.8756" y2="52.8496">
		<stop  offset="0" style="stop-color:#330066"/>
		<stop  offset="0.8303" style="stop-color:#990099"/>
	</linearGradient>
	<path class="st19" d="M630.1,12.7l0,24.4l-33.2,13.8l-1-0.5c0.8-2.2,2-3.3,2-3.3s13-15.9,29-33.3C627.7,13,628.9,12.7,630.1,12.7z"
		/>
	<linearGradient id="SVGID_18_" gradientUnits="userSpaceOnUse" x1="624.7964" y1="58.3497" x2="624.0826" y2="63.9588">
		<stop  offset="0" style="stop-color:#8F008F"/>
		<stop  offset="0.8303" style="stop-color:#FF1E91"/>
	</linearGradient>
	<polygon class="st20" points="629.6,64.5 630.1,58.4 630.1,66.7 621.8,63.5 618,61.6 	"/>
	<linearGradient id="SVGID_19_" gradientUnits="userSpaceOnUse" x1="635.9498" y1="37.9354" x2="664.1295" y2="37.9354">
		<stop  offset="0" style="stop-color:#330066"/>
		<stop  offset="0.8303" style="stop-color:#990099"/>
	</linearGradient>
	<path class="st21" d="M664.1,50.1l-17.2,9l-11-42.3c14.8,16.2,26.3,30.4,26.3,30.4S663.3,48.1,664.1,50.1z"/>
	<linearGradient id="SVGID_20_" gradientUnits="userSpaceOnUse" x1="641.0901" y1="102.6526" x2="697.0896" y2="60.6531">
		<stop  offset="0" style="stop-color:#330066"/>
		<stop  offset="0.8303" style="stop-color:#990099"/>
	</linearGradient>
	<path class="st22" d="M664.6,89.9c0,0-0.9,2.3-3.9,5.4c-4.4,4.6-26.1,29.2-26.1,29.2s-2,2.3-3.8,2.8l17-46.9L664.6,89.9z"/>
	<linearGradient id="SVGID_21_" gradientUnits="userSpaceOnUse" x1="616.157" y1="35.0797" x2="612.6867" y2="62.3473">
		<stop  offset="0" style="stop-color:#660099"/>
		<stop  offset="0.8303" style="stop-color:#990099"/>
	</linearGradient>
	<polygon class="st23" points="630.1,36.9 630.1,58.4 629.6,64.5 618,61.6 596.9,50.9 	"/>
	<path class="st25" d="M596,50.4c1.3,0.5,15.9,7.8,15.9,7.8l-0.4,2.6L596,50.4z"/>
	<path class="st25" d="M596.4,91.6c1.3-0.5,15.4-8.5,15.4-8.5l-0.4-2.6L596.4,91.6z"/>
	<path class="st25" d="M664.1,50.1c-1.3,0.5-16.5,7.4-16.5,7.4l1,2.4L664.1,50.1z"/>
	<path class="st25" d="M630.1,127.2c0.2-1.4,1-25.6,1-25.6l-2,0.1L630.1,127.2z"/>
	<path class="st25" d="M664.6,89.9c-1.3-0.5-16.4-7.8-16.4-7.8l0.4-2.6L664.6,89.9z"/>
	<path class="st25" d="M630.1,12.7c0.2,1.4,1,24.8,1,24.8l-2-0.1L630.1,12.7z"/>
	<g>
		<linearGradient id="SVGID_22_" gradientUnits="userSpaceOnUse" x1="617.9827" y1="88.1194" x2="631.7308" y2="67.4972">
			<stop  offset="6.060610e-02" style="stop-color:#FF7AF5"/>
			<stop  offset="0.903" style="stop-color:#FF9CDB"/>
		</linearGradient>
		<path class="st24" d="M648.3,80.7c0,0-0.3-15.9-0.2-20.2c0.1-2.3-1.4-3.6-1.4-3.6s-7.7-9.2-16-19.3c-0.8-0.9-0.5-0.9-1.2,0
			c-5,6-9.7,11.7-12.7,15.3c-2.1,2.5-3.5,3.6-3.5,3.6s-1.8,1.8-1.8,4.9c0,4.3,0.1,19.8,0.1,19.8s-0.1,1.2,2.3,3.5
			c2.5,2.5,13.6,15.2,15.4,17c0.9,0.9,1.2-0.1,1.2-0.1s5.2-5.6,9.6-10.5c2.6-2.9,5-5.5,5.9-6.5C648.4,81.9,648.3,80.7,648.3,80.7z"
			/>
		<path class="st28" d="M630,103.2l-0.3-0.2c-0.3,0-0.4-0.7-0.7-1.1c-0.8-0.8-3.3-3.6-6.2-6.8c-3.7-4.1-7.8-8.3-9.2-9.7
			c-2.4-2.4-2.5-4.2-2.5-4.4c0-0.1-0.1-15.5-0.1-19.8c0-3.3,1.9-5.2,2-5.2c0.1,0,1.8-2,3.8-4.4c3-3.6,7.5-8.8,12.5-14.8
			c0.1-0.1,0.1,0,0.1-0.1c0.2-0.3,0.4-0.4,0.8-0.4c0.3,0,0.7,0.4,1,0.7c0.1,0.1,0.2,0.2,0.3,0.3c8.3,10.1,16.8,19.5,16.8,19.5
			c1.3,1,1,0.5,0.9,3c-0.1,4.3,0.3,20.9,0.3,21.1c0,0.2,0.4,0.6-2,3.3c-0.9,1-4.4,4.4-6.9,7.2c-4.1,4.5-8.9,9.7-9.5,10.4
			C630.8,102.2,630.5,103.2,630,103.2z"/>
	</g>
	<linearGradient id="SVGID_23_" gradientUnits="userSpaceOnUse" x1="633.1541" y1="65.4851" x2="615.3735" y2="89.1002">
		<stop  offset="0" style="stop-color:#660099"/>
		<stop  offset="0.8303" style="stop-color:#990099"/>
	</linearGradient>
	<path class="st26" d="M639.6,89.9c-4.2,4.6-8.7,9.5-8.7,9.5s-1.1,0.7-1.7,0c-1.5-1.8-12-13.1-14.1-15.7c-1.9-2.2-1.9-3.3-1.9-3.3
		s0-15.5,0-19.6c0-2.5,1.3-3.4,1.3-3.4s1.2-1.4,3.2-3.8L639.6,89.9z"/>
	<linearGradient id="SVGID_24_" gradientUnits="userSpaceOnUse" x1="626.0882" y1="76.7928" x2="635.4328" y2="62.7758">
		<stop  offset="0" style="stop-color:#660099"/>
		<stop  offset="0.8303" style="stop-color:#990099"/>
	</linearGradient>
	<path class="st27" d="M645.2,83.8c-0.8,0.9-3.1,3.4-5.5,6.1l-22.1-36.2c2.9-3.4,7-8,11.5-13.8c0.4-0.5,1.5-0.8,2.2,0
		c7.9,9.5,14.5,17.5,14.5,17.5s1.3,1.2,1.3,3.4c-0.1,4.1,0.2,19.1,0.2,19.1S647.4,81.2,645.2,83.8z"/>
</g>
<g>
	<linearGradient id="SVGID_25_" gradientUnits="userSpaceOnUse" x1="315.0893" y1="70.8797" x2="385.1018" y2="70.8797">
		<stop  offset="0" style="stop-color:#0000FF"/>
		<stop  offset="0.8303" style="stop-color:#0071BC"/>
	</linearGradient>
	<path class="st29" d="M384.5,90.1l-33.7-19l-0.1,0.1l-0.1-0.1l-34.1,20.5c-1.5-2.6-1.3-4.1-1.3-4.1s0-24.8,0-32.3
		c0-1.9,0.4-3.5,0.8-4.7l25.8,13.1l9.7,3.7l32.7-17c0.5,1.3,1,3,1,5c0,7.5,0,32.3,0,32.3S385.1,88.5,384.5,90.1z"/>
	<polygon class="st1" points="350.6,71.2 316.4,91.6 350.5,71.2 	"/>
	<linearGradient id="SVGID_26_" gradientUnits="userSpaceOnUse" x1="352.8505" y1="97.5191" x2="314.2117" y2="125.9987">
		<stop  offset="0" style="stop-color:#004ABC"/>
		<stop  offset="1" style="stop-color:#0081DE"/>
	</linearGradient>
	<path class="st30" d="M368.7,81.2l-18,46.1c-0.1,0-0.1,0-0.2,0c-0.2,0-0.5,0-0.5,0v-56l0.4-0.3l0.1,0.1L368.7,81.2z"/>
	<linearGradient id="SVGID_27_" gradientUnits="userSpaceOnUse" x1="316.3536" y1="99.3549" x2="350.1016" y2="99.3549">
		<stop  offset="0" style="stop-color:#0040FF"/>
		<stop  offset="0.8303" style="stop-color:#009EBC"/>
	</linearGradient>
	<path class="st31" d="M350.1,71.4v56c0,0-0.4,0-0.6,0c-1.9-0.3-4.1-2.8-4.1-2.8s-21.8-24.7-26.2-29.3c-1.3-1.4-2.2-2.8-2.9-3.8h0
		L350.1,71.4z"/>
	<linearGradient id="SVGID_28_" gradientUnits="userSpaceOnUse" x1="350.1016" y1="39.9148" x2="366.8741" y2="39.9148">
		<stop  offset="0" style="stop-color:#004ABC"/>
		<stop  offset="1" style="stop-color:#0081DE"/>
	</linearGradient>
	<path class="st32" d="M366.9,59.1l-15.5,8.1l-1.3-0.5v-54c1,0,2.4,0.4,3.2,1.2c0.9,1,1.8,2,2.7,2.9L366.9,59.1z"/>
	<linearGradient id="SVGID_29_" gradientUnits="userSpaceOnUse" x1="337.1627" y1="11.0181" x2="331.8388" y2="52.8496">
		<stop  offset="0" style="stop-color:#0000FF"/>
		<stop  offset="0.8303" style="stop-color:#0071BC"/>
	</linearGradient>
	<path class="st33" d="M350.1,12.7l0,24.4l-33.2,13.8l-1-0.5c0.8-2.2,2-3.3,2-3.3s13-15.9,29-33.3C347.6,13,348.8,12.7,350.1,12.7z"
		/>
	<linearGradient id="SVGID_30_" gradientUnits="userSpaceOnUse" x1="344.7883" y1="58.3493" x2="344.0745" y2="63.9578">
		<stop  offset="0" style="stop-color:#8F008F"/>
		<stop  offset="0.8303" style="stop-color:#FF1E91"/>
	</linearGradient>
	<polygon class="st34" points="349.6,64.5 350.1,58.4 350.1,66.7 341.8,63.5 338,61.6 	"/>
	<linearGradient id="SVGID_31_" gradientUnits="userSpaceOnUse" x1="355.9131" y1="37.9343" x2="384.0928" y2="37.9343">
		<stop  offset="0" style="stop-color:#004ABC"/>
		<stop  offset="1" style="stop-color:#0081DE"/>
	</linearGradient>
	<path class="st35" d="M384.1,50.1l-17.2,9l-11-42.3c14.8,16.2,26.3,30.4,26.3,30.4S383.3,48.2,384.1,50.1z"/>
	<linearGradient id="SVGID_32_" gradientUnits="userSpaceOnUse" x1="336.9465" y1="120.7327" x2="392.9459" y2="78.7332">
		<stop  offset="0" style="stop-color:#0000FF"/>
		<stop  offset="0.8303" style="stop-color:#0071BC"/>
	</linearGradient>
	<path class="st36" d="M384.6,89.9c0,0-0.9,2.3-3.9,5.4c-4.4,4.6-26.1,29.2-26.1,29.2s-2,2.3-3.8,2.8l17-46.9L384.6,89.9z"/>
	<linearGradient id="SVGID_33_" gradientUnits="userSpaceOnUse" x1="336.1421" y1="35.0777" x2="332.6714" y2="62.3475">
		<stop  offset="0" style="stop-color:#004ABC"/>
		<stop  offset="1" style="stop-color:#0081DE"/>
	</linearGradient>
	<polygon class="st37" points="350.1,36.9 350.1,58.4 349.6,64.5 338,61.6 316.9,50.9 	"/>
	<path class="st40" d="M315.9,50.4c1.3,0.5,15.9,7.8,15.9,7.8l-0.4,2.6L315.9,50.4z"/>
	<path class="st40" d="M316.4,91.6c1.3-0.5,15.4-8.5,15.4-8.5l-0.4-2.6L316.4,91.6z"/>
	<path class="st40" d="M384.1,50.1c-1.3,0.5-16.5,7.4-16.5,7.4l1,2.4L384.1,50.1z"/>
	<path class="st40" d="M350,127.2c0.2-1.4,1-25.6,1-25.6l-2,0.1L350,127.2z"/>
	<path class="st40" d="M384.5,89.9c-1.3-0.5-16.4-7.8-16.4-7.8l0.4-2.6L384.5,89.9z"/>
	<path class="st40" d="M350.1,12.7c0.2,1.4,1,24.8,1,24.8l-2-0.1L350.1,12.7z"/>
	<g>
		<path class="st42" d="M368.2,80.7c0,0-0.3-15.9-0.2-20.3c0.1-2.3-1.4-3.6-1.4-3.6s-7.7-9.2-16-19.3c-0.8-0.9-0.5-0.9-1.2,0
			c-5,6-9.7,11.7-12.7,15.3c-2.1,2.5-3.5,3.6-3.5,3.6s-1.8,1.8-1.8,4.9c0,4.3,0.1,19.8,0.1,19.8s-0.1,1.2,2.3,3.5
			c2.5,2.5,13.6,15.2,15.4,17c0.9,0.9,1.2-0.1,1.2-0.1s5.2-5.6,9.6-10.5c2.6-2.9,5-5.5,5.9-6.5C368.4,81.9,368.2,80.7,368.2,80.7z"
			/>
		<path class="st43" d="M350,103.2l-0.3-0.2c-0.3,0-0.4-0.7-0.7-1.1c-0.8-0.8-3.3-3.6-6.2-6.8c-3.7-4.1-7.8-8.3-9.2-9.7
			c-2.4-2.4-2.5-4.2-2.5-4.4c0-0.1-0.1-15.5-0.1-19.8c0-3.3,1.9-5.2,2-5.2c0.1,0,1.8-2,3.8-4.4c3-3.6,7.5-8.8,12.5-14.8
			c0.1-0.1,0.1,0,0.1-0.1c0.2-0.3,0.4-0.4,0.8-0.4c0.3,0,0.7,0.4,1,0.7c0.1,0.1,0.2,0.2,0.3,0.3c8.3,10.1,16.8,19.5,16.8,19.5
			c1.3,1,1,0.5,0.9,3c-0.1,4.3,0.3,20.9,0.3,21.1c0,0.2,0.4,0.6-2,3.3c-0.9,1-4.4,4.4-6.9,7.2c-4.1,4.5-8.9,9.7-9.5,10.4
			C350.8,102.2,350.5,103.2,350,103.2z"/>
	</g>
	<linearGradient id="SVGID_34_" gradientUnits="userSpaceOnUse" x1="348.3181" y1="71.8761" x2="330.534" y2="95.4958">
		<stop  offset="0" style="stop-color:#004ABC"/>
		<stop  offset="1" style="stop-color:#0081DE"/>
	</linearGradient>
	<path class="st38" d="M359.6,89.9c-4.2,4.6-8.7,9.5-8.7,9.5s-1.1,0.7-1.7,0c-1.5-1.8-12-13.1-14.1-15.7c-1.9-2.2-1.9-3.3-1.9-3.3
		s0-15.5,0-19.6c0-2.5,1.3-3.4,1.3-3.4s1.2-1.4,3.2-3.8L359.6,89.9z"/>
	<linearGradient id="SVGID_35_" gradientUnits="userSpaceOnUse" x1="348.8206" y1="72.639" x2="366.8834" y2="45.5449">
		<stop  offset="0" style="stop-color:#004ABC"/>
		<stop  offset="1" style="stop-color:#0081DE"/>
	</linearGradient>
	<path class="st39" d="M365.1,83.8c-0.8,0.9-3.1,3.4-5.5,6.1l-22.1-36.2c2.9-3.4,7-8,11.5-13.8c0.4-0.5,1.5-0.9,2.2,0
		c7.9,9.5,14.5,17.5,14.5,17.5s1.3,1.2,1.3,3.4c-0.1,4.1,0.2,19.1,0.2,19.1S367.4,81.2,365.1,83.8z"/>
</g>
<g>
	
		<linearGradient id="SVGID_36_" gradientUnits="userSpaceOnUse" x1="903.4828" y1="66.7977" x2="967.675" y2="94.7415" gradientTransform="matrix(1 0 0 -1 0 140)">
		<stop  offset="0" style="stop-color:#000066"/>
		<stop  offset="0.8303" style="stop-color:#0000FF"/>
	</linearGradient>
	<path class="st41" d="M944.4,90.1l-33.7-19l-0.1,0.1l-0.1-0.1l-34.1,20.5c-1.5-2.6-1.3-4.1-1.3-4.1s0-24.8,0-32.3
		c0-1.9,0.3-3.5,0.8-4.7l25.8,13.1l9.7,3.7l32.7-17c0.5,1.3,1,3,1,5c0,7.5,0,32.3,0,32.3S945,88.5,944.4,90.1z"/>
	<polygon class="st1" points="910.5,71.2 876.3,91.6 910.4,71.2 	"/>
	
		<linearGradient id="SVGID_37_" gradientUnits="userSpaceOnUse" x1="912.736" y1="42.4981" x2="874.1079" y2="14.0264" gradientTransform="matrix(1 0 0 -1 0 140)">
		<stop  offset="0" style="stop-color:#0000CC"/>
		<stop  offset="0.8303" style="stop-color:#006699"/>
	</linearGradient>
	<path class="st44" d="M928.6,81.2l-18,46.1c-0.1,0-0.1,0-0.1,0c-0.2,0-0.5,0-0.5,0v-56l0.4-0.3l0.1,0.1L928.6,81.2z"/>
	
		<linearGradient id="SVGID_38_" gradientUnits="userSpaceOnUse" x1="876.2438" y1="40.6" x2="910.0066" y2="40.6" gradientTransform="matrix(1 0 0 -1 0 140)">
		<stop  offset="0" style="stop-color:#0000CC"/>
		<stop  offset="0.8303" style="stop-color:#006699"/>
	</linearGradient>
	<path class="st45" d="M910,71.4v56c0,0-0.4,0-0.6,0c-1.9-0.3-4.1-2.8-4.1-2.8s-21.8-25-26.2-29.6c-1.3-1.4-2.2-3-2.9-4l0,0
		L910,71.4z"/>
	
		<linearGradient id="SVGID_39_" gradientUnits="userSpaceOnUse" x1="910" y1="100.05" x2="926.7577" y2="100.05" gradientTransform="matrix(1 0 0 -1 0 140)">
		<stop  offset="0" style="stop-color:#0000CC"/>
		<stop  offset="0.8303" style="stop-color:#006699"/>
	</linearGradient>
	<path class="st46" d="M926.8,59.1l-15.5,8.1l-1.3-0.5v-54c1,0,2.4,0.4,3.1,1.2c0.9,1,1.8,2,2.7,2.9L926.8,59.1z"/>
	
		<linearGradient id="SVGID_40_" gradientUnits="userSpaceOnUse" x1="897.0675" y1="128.9459" x2="891.7416" y2="87.0984" gradientTransform="matrix(1 0 0 -1 0 140)">
		<stop  offset="0" style="stop-color:#000066"/>
		<stop  offset="0.8303" style="stop-color:#006699"/>
	</linearGradient>
	<path class="st47" d="M910,12.7v24.4L876.8,51l-1-0.5c0.8-2.2,2-3.3,2-3.3s13-15.9,29-33.3C907.5,13,908.7,12.7,910,12.7z"/>
	
		<linearGradient id="SVGID_41_" gradientUnits="userSpaceOnUse" x1="904.6885" y1="81.6522" x2="903.9746" y2="76.0431" gradientTransform="matrix(1 0 0 -1 0 140)">
		<stop  offset="0" style="stop-color:#8F008F"/>
		<stop  offset="0.8303" style="stop-color:#FF1E91"/>
	</linearGradient>
	<polygon class="st48" points="909.5,64.5 910,58.4 910,66.7 901.7,63.5 897.9,61.6 	"/>
	
		<linearGradient id="SVGID_42_" gradientUnits="userSpaceOnUse" x1="915.8" y1="102.05" x2="944" y2="102.05" gradientTransform="matrix(1 0 0 -1 0 140)">
		<stop  offset="0" style="stop-color:#000066"/>
		<stop  offset="0.8303" style="stop-color:#0000FF"/>
	</linearGradient>
	<path class="st49" d="M944,50.1l-17.2,9l-11-42.3c14.8,16.2,26.3,30.4,26.3,30.4S943.2,48.1,944,50.1z"/>
	
		<linearGradient id="SVGID_43_" gradientUnits="userSpaceOnUse" x1="920.9847" y1="37.2929" x2="976.9841" y2="79.2925" gradientTransform="matrix(1 0 0 -1 0 140)">
		<stop  offset="0" style="stop-color:#000066"/>
		<stop  offset="0.8303" style="stop-color:#006699"/>
	</linearGradient>
	<path class="st50" d="M944.5,89.9c0,0-0.9,2.3-3.9,5.4c-4.4,4.6-26.1,29.2-26.1,29.2s-2,2.3-3.8,2.8l17-46.9L944.5,89.9z"/>
	
		<linearGradient id="SVGID_44_" gradientUnits="userSpaceOnUse" x1="896.0356" y1="104.9238" x2="892.5649" y2="77.653" gradientTransform="matrix(1 0 0 -1 0 140)">
		<stop  offset="0" style="stop-color:#0000CC"/>
		<stop  offset="0.8303" style="stop-color:#006699"/>
	</linearGradient>
	<polygon class="st51" points="910,36.9 910,58.4 909.5,64.5 897.9,61.6 876.8,51 	"/>
	<path class="st55" d="M875.8,50.4c1.3,0.5,15.9,7.8,15.9,7.8l-0.4,2.6L875.8,50.4z"/>
	<path class="st55" d="M876.3,91.6c1.3-0.5,15.4-8.5,15.4-8.5l-0.4-2.6L876.3,91.6z"/>
	<path class="st55" d="M944,50.1c-1.3,0.5-16.5,7.4-16.5,7.4l1,2.4L944,50.1z"/>
	<path class="st55" d="M909.9,127.2c0.2-1.4,1-25.6,1-25.6l-2,0.1L909.9,127.2z"/>
	<path class="st55" d="M944.4,89.9c-1.3-0.5-16.4-7.8-16.4-7.8l0.4-2.6L944.4,89.9z"/>
	<path class="st55" d="M910,12.7c0.2,1.4,1,24.8,1,24.8l-2-0.1L910,12.7z"/>
	<g>
		
			<linearGradient id="SVGID_45_" gradientUnits="userSpaceOnUse" x1="897.7935" y1="51.9092" x2="911.5416" y2="72.5313" gradientTransform="matrix(1 0 0 -1 0 140)">
			<stop  offset="6.060610e-02" style="stop-color:#FF7AF5"/>
			<stop  offset="0.903" style="stop-color:#FF9CDB"/>
		</linearGradient>
		<path class="st52" d="M928.1,80.7c0,0-0.3-15.9-0.2-20.3c0.1-2.3-1.4-3.6-1.4-3.6s-7.7-9.2-16-19.3c-0.8-0.9-0.5-0.9-1.2,0
			c-5,6-9.7,11.7-12.7,15.3c-2.1,2.5-3.5,3.6-3.5,3.6s-1.8,1.8-1.8,4.9c0,4.3,0.1,19.8,0.1,19.8s-0.1,1.2,2.3,3.5
			c2.5,2.5,13.6,15.2,15.4,17c0.9,0.9,1.2-0.1,1.2-0.1s5.2-5.6,9.6-10.5c2.6-2.9,5-5.5,5.9-6.5C928.3,81.9,928.1,80.7,928.1,80.7z"
			/>
		<path class="st57" d="M909.9,103.2l-0.3-0.2c-0.3,0-0.4-0.7-0.7-1.1c-0.8-0.8-3.3-3.6-6.2-6.8c-3.7-4.1-7.8-8.3-9.2-9.7
			c-2.4-2.4-2.5-4.2-2.5-4.4c0-0.1-0.1-15.5-0.1-19.8c0-3.3,1.9-5.2,2-5.2s1.8-2,3.8-4.4c3-3.6,7.5-8.8,12.5-14.8
			c0.1-0.1,0.1,0,0.1-0.1c0.2-0.3,0.4-0.4,0.8-0.4c0.3,0,0.7,0.4,1,0.7c0.1,0.1,0.2,0.2,0.3,0.3c8.3,10.1,16.8,19.5,16.8,19.5
			c1.3,1,1,0.5,0.9,3c-0.1,4.3,0.3,20.9,0.3,21.1c0,0.2,0.4,0.6-2,3.3c-0.9,1-4.4,4.4-6.9,7.2c-4.1,4.5-8.9,9.7-9.5,10.4
			C910.7,102.2,910.4,103.2,909.9,103.2z"/>
	</g>
	
		<linearGradient id="SVGID_46_" gradientUnits="userSpaceOnUse" x1="913.0167" y1="74.518" x2="895.2313" y2="50.8966" gradientTransform="matrix(1 0 0 -1 0 140)">
		<stop  offset="0" style="stop-color:#000066"/>
		<stop  offset="0.8303" style="stop-color:#006699"/>
	</linearGradient>
	<path class="st53" d="M919.5,89.9c-4.2,4.6-8.7,9.5-8.7,9.5s-1.1,0.7-1.7,0c-1.5-1.8-12-13.1-14.1-15.7c-1.9-2.2-1.9-3.3-1.9-3.3
		s0-15.5,0-19.6c0-2.5,1.2-3.4,1.2-3.4s1.2-1.4,3.2-3.8L919.5,89.9z"/>
	
		<linearGradient id="SVGID_47_" gradientUnits="userSpaceOnUse" x1="913.4152" y1="61.1115" x2="910.4152" y2="112.6113" gradientTransform="matrix(1 0 0 -1 0 140)">
		<stop  offset="0" style="stop-color:#000066"/>
		<stop  offset="0.8303" style="stop-color:#006699"/>
	</linearGradient>
	<path class="st54" d="M925,83.8c-0.8,0.9-3.1,3.4-5.5,6.1l-22.1-36.2c2.9-3.4,7-8,11.5-13.8c0.4-0.5,1.5-0.8,2.2,0
		c7.9,9.5,14.5,17.5,14.5,17.5s1.3,1.2,1.3,3.4c-0.1,4.1,0.2,19.1,0.2,19.1S927.3,81.2,925,83.8z"/>
</g>
<g>
	
		<linearGradient id="SVGID_48_" gradientUnits="userSpaceOnUse" x1="1043.4327" y1="66.8194" x2="1107.6239" y2="94.7628" gradientTransform="matrix(1 0 0 -1 0 140)">
		<stop  offset="0" style="stop-color:#42000B"/>
		<stop  offset="0.8303" style="stop-color:#F04F33"/>
	</linearGradient>
	<path class="st56" d="M1084.3,90.1l-33.8-19l-0.1,0.1l-0.1-0.1l-34.1,20.5c-1.5-2.6-1.2-4.1-1.2-4.1s0-24.8,0-32.3
		c0-1.9,0.3-3.5,0.8-4.7l25.8,13.1l9.6,3.7l32.8-17c0.5,1.3,1,3,1,5c0,7.5,0,32.3,0,32.3S1085,88.5,1084.3,90.1z"/>
	<polygon class="st1" points="1050.4,71.2 1016.2,91.6 1050.3,71.2 	"/>
	
		<linearGradient id="SVGID_49_" gradientUnits="userSpaceOnUse" x1="1052.6896" y1="42.5007" x2="1014.1372" y2="14.0848" gradientTransform="matrix(1 0 0 -1 0 140)">
		<stop  offset="0" style="stop-color:#42000B"/>
		<stop  offset="0.8303" style="stop-color:#F04F33"/>
	</linearGradient>
	<path class="st58" d="M1068.5,81.2l-18,46.1c-0.1,0,0,0-0.1,0c-0.2,0-0.4,0-0.4,0v-56l0.4-0.3l0.1,0.1L1068.5,81.2z"/>
	
		<linearGradient id="SVGID_50_" gradientUnits="userSpaceOnUse" x1="1016.1448" y1="40.6" x2="1050.0105" y2="40.6" gradientTransform="matrix(1 0 0 -1 0 140)">
		<stop  offset="0" style="stop-color:#42000B"/>
		<stop  offset="0.8303" style="stop-color:#F04F33"/>
	</linearGradient>
	<path class="st59" d="M1050,71.4v56c0,0-0.4,0-0.6,0c-1.9-0.3-4.1-2.8-4.1-2.8s-21.8-25-26.3-29.6c-1.3-1.4-2.3-3.1-2.9-4.1l0,0
		L1050,71.4z"/>
	
		<linearGradient id="SVGID_51_" gradientUnits="userSpaceOnUse" x1="1049.9999" y1="100.05" x2="1066.6547" y2="100.05" gradientTransform="matrix(1 0 0 -1 0 140)">
		<stop  offset="0" style="stop-color:#42000B"/>
		<stop  offset="0.8303" style="stop-color:#CC6633"/>
	</linearGradient>
	<path class="st60" d="M1066.7,59.1l-15.4,8.1l-1.3-0.5v-54c1,0,2.4,0.4,3.1,1.2c0.9,1,1.8,2,2.6,2.9L1066.7,59.1z"/>
	
		<linearGradient id="SVGID_52_" gradientUnits="userSpaceOnUse" x1="1036.9613" y1="128.9467" x2="1031.6375" y2="87.1152" gradientTransform="matrix(1 0 0 -1 0 140)">
		<stop  offset="0" style="stop-color:#30000B"/>
		<stop  offset="0.8303" style="stop-color:#FF4F3B"/>
	</linearGradient>
	<path class="st61" d="M1049.9,12.7v24.4l-33.2,13.8l-1-0.5c0.8-2.2,2-3.3,2-3.3s13-15.9,29-33.3C1047.4,13,1048.6,12.7,1049.9,12.7
		z"/>
	
		<linearGradient id="SVGID_53_" gradientUnits="userSpaceOnUse" x1="1044.6885" y1="81.6527" x2="1043.9746" y2="76.0435" gradientTransform="matrix(1 0 0 -1 0 140)">
		<stop  offset="0" style="stop-color:#8F008F"/>
		<stop  offset="0.8303" style="stop-color:#FF1E91"/>
	</linearGradient>
	<polygon class="st62" points="1049.4,64.5 1050,58.4 1050,66.7 1041.6,63.5 1037.9,61.6 	"/>
	
		<linearGradient id="SVGID_54_" gradientUnits="userSpaceOnUse" x1="1055.7001" y1="102.05" x2="1083.9" y2="102.05" gradientTransform="matrix(1 0 0 -1 0 140)">
		<stop  offset="0" style="stop-color:#30000B"/>
		<stop  offset="0.8303" style="stop-color:#FF4F3B"/>
	</linearGradient>
	<path class="st63" d="M1083.9,50.1l-17.2,9l-11-42.3c14.8,16.2,26.3,30.4,26.3,30.4S1083.1,48.1,1083.9,50.1z"/>
	
		<linearGradient id="SVGID_55_" gradientUnits="userSpaceOnUse" x1="1060.8851" y1="37.2933" x2="1116.8845" y2="79.2928" gradientTransform="matrix(1 0 0 -1 0 140)">
		<stop  offset="0" style="stop-color:#42000B"/>
		<stop  offset="0.8303" style="stop-color:#F04F33"/>
	</linearGradient>
	<path class="st64" d="M1084.4,89.9c0,0-0.9,2.3-3.9,5.4c-4.4,4.6-26.1,29.2-26.1,29.2s-2,2.3-3.8,2.8l17-46.9L1084.4,89.9z"/>
	
		<linearGradient id="SVGID_56_" gradientUnits="userSpaceOnUse" x1="1035.9802" y1="104.9314" x2="1032.5087" y2="77.6541" gradientTransform="matrix(1 0 0 -1 0 140)">
		<stop  offset="0" style="stop-color:#42000B"/>
		<stop  offset="0.8303" style="stop-color:#CC6633"/>
	</linearGradient>
	<polygon class="st65" points="1050,36.9 1050,58.4 1049.4,64.5 1037.8,61.6 1016.8,50.9 	"/>
	<path class="st69" d="M1015.7,50.4c1.3,0.5,15.9,7.8,15.9,7.8l-0.4,2.6L1015.7,50.4z"/>
	<path class="st69" d="M1016.2,91.6c1.3-0.5,15.4-8.5,15.4-8.5l-0.4-2.6L1016.2,91.6z"/>
	<path class="st69" d="M1083.9,50.1c-1.3,0.5-16.5,7.4-16.5,7.4l1,2.4L1083.9,50.1z"/>
	<path class="st69" d="M1049.8,127.2c0.2-1.4,1-25.6,1-25.6l-2,0.1L1049.8,127.2z"/>
	<path class="st69" d="M1084.3,89.9c-1.3-0.5-16.4-7.8-16.4-7.8l0.4-2.6L1084.3,89.9z"/>
	<path class="st69" d="M1049.9,12.7c0.2,1.4,1,24.8,1,24.8l-2-0.1L1049.9,12.7z"/>
	<g>
		
			<linearGradient id="SVGID_57_" gradientUnits="userSpaceOnUse" x1="1037.6938" y1="51.9096" x2="1051.442" y2="72.5317" gradientTransform="matrix(1 0 0 -1 0 140)">
			<stop  offset="6.060610e-02" style="stop-color:#FF7AF5"/>
			<stop  offset="0.903" style="stop-color:#FF9CDB"/>
		</linearGradient>
		<path class="st66" d="M1068,80.7c0,0-0.3-15.9-0.2-20.3c0.1-2.3-1.4-3.6-1.4-3.6s-7.7-9.2-16-19.3c-0.8-0.9-0.5-0.9-1.2,0
			c-5,6-9.7,11.7-12.7,15.3c-2.1,2.5-3.5,3.6-3.5,3.6s-1.8,1.8-1.8,4.9c0,4.3,0.1,19.8,0.1,19.8s-0.1,1.2,2.3,3.5
			c2.5,2.5,13.6,15.2,15.4,17c0.9,0.9,1.2-0.1,1.2-0.1s5.2-5.6,9.6-10.5c2.6-2.9,5-5.5,5.9-6.5C1068.2,81.9,1068,80.7,1068,80.7z"/>
		<path class="st10" d="M1049.8,103.2l-0.3-0.2c-0.3,0-0.4-0.7-0.7-1.1c-0.8-0.8-3.3-3.6-6.2-6.8c-3.7-4.1-7.8-8.3-9.2-9.7
			c-2.4-2.4-2.5-4.2-2.5-4.4c0-0.1-0.1-15.5-0.1-19.8c0-3.3,1.9-5.2,2-5.2s1.8-2,3.8-4.4c3-3.6,7.5-8.8,12.5-14.8
			c0.1-0.1,0.1,0,0.1-0.1c0.2-0.3,0.4-0.4,0.8-0.4c0.3,0,0.7,0.4,1,0.7c0.1,0.1,0.2,0.2,0.3,0.3c8.3,10.1,16.8,19.5,16.8,19.5
			c1.3,1,1,0.5,0.9,3c-0.1,4.3,0.3,20.9,0.3,21.1c0,0.2,0.4,0.6-2,3.3c-0.9,1-4.4,4.4-6.9,7.2c-4.1,4.5-8.9,9.7-9.5,10.4
			C1050.6,102.2,1050.3,103.2,1049.8,103.2z"/>
	</g>
	
		<linearGradient id="SVGID_58_" gradientUnits="userSpaceOnUse" x1="1052.9263" y1="74.5305" x2="1035.1383" y2="50.9059" gradientTransform="matrix(1 0 0 -1 0 140)">
		<stop  offset="0" style="stop-color:#42000B"/>
		<stop  offset="0.8303" style="stop-color:#CC6633"/>
	</linearGradient>
	<path class="st67" d="M1059.4,89.9c-4.2,4.6-8.7,9.5-8.7,9.5s-1.1,0.7-1.7,0c-1.5-1.8-11.9-13.1-14.1-15.7
		c-1.9-2.2-1.9-3.3-1.9-3.3s0-15.5,0-19.6c0-2.5,1.2-3.4,1.2-3.4s1.2-1.4,3.1-3.8L1059.4,89.9z"/>
	
		<linearGradient id="SVGID_59_" gradientUnits="userSpaceOnUse" x1="1053.3152" y1="61.1114" x2="1050.3153" y2="112.6113" gradientTransform="matrix(1 0 0 -1 0 140)">
		<stop  offset="0" style="stop-color:#42000B"/>
		<stop  offset="0.8303" style="stop-color:#CC6633"/>
	</linearGradient>
	<path class="st68" d="M1064.9,83.8c-0.8,0.9-3.1,3.4-5.5,6.1l-22.1-36.2c2.9-3.4,7-8,11.5-13.8c0.4-0.5,1.5-0.8,2.2,0
		c7.9,9.5,14.5,17.5,14.5,17.5s1.3,1.2,1.3,3.4c-0.1,4.1,0.2,19.1,0.2,19.1S1067.2,81.2,1064.9,83.8z"/>
</g>
<g>
	<linearGradient id="SVGID_60_" gradientUnits="userSpaceOnUse" x1="34.9926" y1="70.8797" x2="105.0034" y2="70.8797">
		<stop  offset="0" style="stop-color:#8F008F"/>
		<stop  offset="0.8303" style="stop-color:#FF1E91"/>
	</linearGradient>
	<path class="st70" d="M104.4,90.1l-33.7-19l-0.1,0.1l-0.1-0.1L36.3,91.6C34.8,89,35,87.5,35,87.5s0-24.8,0-32.3
		c0-1.9,0.4-3.5,0.8-4.7l25.8,13.1l9.7,3.7l32.7-17c0.5,1.3,1,3,1,5c0,7.5,0,32.3,0,32.3S105.1,88.5,104.4,90.1z"/>
	<polygon class="st1" points="70.6,71.2 36.3,91.6 70.4,71.2 	"/>
	<linearGradient id="SVGID_61_" gradientUnits="userSpaceOnUse" x1="72.7696" y1="97.5196" x2="34.1033" y2="126.0195">
		<stop  offset="0" style="stop-color:#66008F"/>
		<stop  offset="0.8303" style="stop-color:#FF1E91"/>
	</linearGradient>
	<path class="st71" d="M88.7,81.2l-18,46.1c-0.1,0-0.1,0-0.2,0c-0.2,0-0.3,0-0.5,0v-56l0.4-0.3l0.1,0.1L88.7,81.2z"/>
	<linearGradient id="SVGID_62_" gradientUnits="userSpaceOnUse" x1="36.2926" y1="99.3549" x2="70.0026" y2="99.3549">
		<stop  offset="0" style="stop-color:#9E005D"/>
		<stop  offset="0.8303" style="stop-color:#93278F"/>
	</linearGradient>
	<path class="st72" d="M70,71.4v56c-0.2,0-0.4,0-0.5,0c-1.9-0.3-4.1-2.8-4.1-2.8S43.6,99.8,39.2,95.3c-1.3-1.4-2.2-2.8-2.9-3.8h0
		L70,71.4z"/>
	<linearGradient id="SVGID_63_" gradientUnits="userSpaceOnUse" x1="70.0026" y1="39.9149" x2="86.8127" y2="39.9149">
		<stop  offset="0" style="stop-color:#FF1E91"/>
		<stop  offset="1" style="stop-color:#FF9EFF"/>
	</linearGradient>
	<path class="st73" d="M86.8,59.1l-15.5,8.1L70,66.7v-54c1.2,0,2.5,0.4,3.2,1.2c0.9,1,1.8,2,2.7,2.9L86.8,59.1z"/>
	<linearGradient id="SVGID_64_" gradientUnits="userSpaceOnUse" x1="57.1015" y1="11.0181" x2="51.7777" y2="52.8495">
		<stop  offset="0" style="stop-color:#8F008F"/>
		<stop  offset="0.8303" style="stop-color:#FF1E91"/>
	</linearGradient>
	<path class="st74" d="M70,12.7l0,24.4L36.9,51l-1-0.5c0.8-2.2,2-3.3,2-3.3s13-15.9,29-33.3C67.6,13,68.8,12.7,70,12.7z"/>
	<linearGradient id="SVGID_65_" gradientUnits="userSpaceOnUse" x1="64.6988" y1="58.3501" x2="63.9849" y2="63.9589">
		<stop  offset="0" style="stop-color:#8F008F"/>
		<stop  offset="0.8303" style="stop-color:#FF1E91"/>
	</linearGradient>
	<polygon class="st75" points="69.5,64.5 70,58.4 70,66.7 61.7,63.5 57.9,61.6 	"/>
	<linearGradient id="SVGID_66_" gradientUnits="userSpaceOnUse" x1="75.8527" y1="37.9349" x2="104.0324" y2="37.9349">
		<stop  offset="0" style="stop-color:#FF1E91"/>
		<stop  offset="1" style="stop-color:#FF9EFF"/>
	</linearGradient>
	<path class="st76" d="M104,50.1l-17.2,9l-11-42.3c14.8,16.2,26.3,30.4,26.3,30.4S103.2,48.1,104,50.1z"/>
	<linearGradient id="SVGID_67_" gradientUnits="userSpaceOnUse" x1="80.9924" y1="102.6528" x2="136.9922" y2="60.6529">
		<stop  offset="0" style="stop-color:#66008F"/>
		<stop  offset="0.8303" style="stop-color:#FF1E91"/>
	</linearGradient>
	<path class="st77" d="M104.5,89.9c0,0-0.9,2.3-3.9,5.4c-4.4,4.6-26.1,29.2-26.1,29.2s-2,2.3-3.8,2.8l17-46.9L104.5,89.9z"/>
	<linearGradient id="SVGID_68_" gradientUnits="userSpaceOnUse" x1="56.0597" y1="35.0798" x2="52.5893" y2="62.3473">
		<stop  offset="0" style="stop-color:#8F008F"/>
		<stop  offset="0.8303" style="stop-color:#FF1E91"/>
	</linearGradient>
	<polygon class="st78" points="70,36.9 70,58.4 69.5,64.5 57.9,61.6 36.9,51 	"/>
	<linearGradient id="SVGID_69_" gradientUnits="userSpaceOnUse" x1="35.8571" y1="55.6458" x2="51.7526" y2="55.6458">
		<stop  offset="6.060610e-02" style="stop-color:#9C0091"/>
		<stop  offset="0.903" style="stop-color:#D100DB"/>
	</linearGradient>
	<path class="st79" d="M35.9,50.4c1.3,0.5,15.9,7.8,15.9,7.8l-0.4,2.6L35.9,50.4z"/>
	<linearGradient id="SVGID_70_" gradientUnits="userSpaceOnUse" x1="36.3361" y1="86.0628" x2="51.7526" y2="86.0628">
		<stop  offset="6.060610e-02" style="stop-color:#9C0091"/>
		<stop  offset="0.903" style="stop-color:#D100DB"/>
	</linearGradient>
	<path class="st80" d="M36.3,91.6c1.3-0.5,15.4-8.5,15.4-8.5l-0.4-2.6L36.3,91.6z"/>
	<linearGradient id="SVGID_71_" gradientUnits="userSpaceOnUse" x1="108.5846" y1="41.4953" x2="95.7516" y2="53.8283">
		<stop  offset="0" style="stop-color:#FF1E91"/>
		<stop  offset="1" style="stop-color:#FF9EFF"/>
	</linearGradient>
	<path class="st81" d="M104,50.1c-1.3,0.5-16.5,7.4-16.5,7.4l1,2.4L104,50.1z"/>
	<linearGradient id="SVGID_72_" gradientUnits="userSpaceOnUse" x1="69.0182" y1="117.7141" x2="71.5183" y2="100.548">
		<stop  offset="0" style="stop-color:#FF1E91"/>
		<stop  offset="1" style="stop-color:#FF9EFF"/>
	</linearGradient>
	<path class="st82" d="M70,127.2c0.2-1.4,1-25.6,1-25.6l-2,0.1L70,127.2z"/>
	<linearGradient id="SVGID_73_" gradientUnits="userSpaceOnUse" x1="88.1276" y1="84.6951" x2="104.487" y2="84.6951">
		<stop  offset="0" style="stop-color:#FF1E91"/>
		<stop  offset="1" style="stop-color:#FF9EFF"/>
	</linearGradient>
	<path class="st83" d="M104.5,89.9c-1.3-0.5-16.4-7.8-16.4-7.8l0.4-2.6L104.5,89.9z"/>
	<linearGradient id="SVGID_74_" gradientUnits="userSpaceOnUse" x1="61.1064" y1="38.1931" x2="64.4399" y2="33.5261">
		<stop  offset="0" style="stop-color:#FF1E91"/>
		<stop  offset="1" style="stop-color:#FF9EFF"/>
	</linearGradient>
	<path class="st84" d="M70,12.7c0.2,1.4,1,24.8,1,24.8l-2-0.1L70,12.7z"/>
	<g>
		<linearGradient id="SVGID_75_" gradientUnits="userSpaceOnUse" x1="57.8851" y1="88.1193" x2="71.6332" y2="67.4971">
			<stop  offset="6.060610e-02" style="stop-color:#FF7AF5"/>
			<stop  offset="0.903" style="stop-color:#FF9CDB"/>
		</linearGradient>
		<path class="st85" d="M88.2,80.7c0,0-0.3-15.9-0.2-20.3c0.1-2.3-1.4-3.6-1.4-3.6s-7.7-9.2-16-19.3c-0.8-0.9-0.5-0.9-1.2,0
			c-5,6-9.7,11.7-12.7,15.3c-2.1,2.5-3.5,3.6-3.5,3.6s-1.8,1.8-1.8,4.9c0,4.3,0.1,19.8,0.1,19.8s-0.1,1.2,2.3,3.5
			c2.5,2.5,13.6,15.2,15.4,17c0.9,0.9,1.2-0.1,1.2-0.1s5.2-5.6,9.6-10.5c2.6-2.9,5-5.5,5.9-6.5C88.3,81.9,88.2,80.7,88.2,80.7z"/>
		<linearGradient id="SVGID_76_" gradientUnits="userSpaceOnUse" x1="50.8776" y1="69.7904" x2="89.3744" y2="69.7904">
			<stop  offset="6.060610e-02" style="stop-color:#FF7AF5"/>
			<stop  offset="0.903" style="stop-color:#FF9CDB"/>
		</linearGradient>
		<path class="st86" d="M69.9,103.2l-0.3-0.2c-0.3,0-0.4-0.7-0.7-1.1c-0.8-0.8-3.3-3.6-6.2-6.8c-3.7-4.1-7.8-8.3-9.2-9.7
			c-2.4-2.4-2.5-4.2-2.5-4.4c0-0.1-0.1-15.5-0.1-19.8c0-3.3,1.9-5.2,2-5.2c0.1,0,1.8-2,3.8-4.4c3-3.6,7.5-8.8,12.5-14.8
			c0.1-0.1,0.1,0,0.1-0.1c0.2-0.3,0.4-0.4,0.8-0.4c0.3,0,0.7,0.4,1,0.7c0.1,0.1,0.2,0.2,0.3,0.3c8.3,10.1,16.8,19.5,16.8,19.5
			c1.3,1,1,0.5,0.9,3c-0.1,4.3,0.3,20.9,0.3,21.1c0,0.2,0.4,0.6-2,3.3c-0.9,1-4.4,4.4-6.9,7.2c-4.1,4.5-8.9,9.7-9.5,10.4
			C70.7,102.2,70.4,103.2,69.9,103.2z M53.5,56.8c0,0-1.6,1.7-1.6,4.5c0,4.3,0.1,19.7,0.1,19.8c0,0,0.1,1.1,2.2,3.2
			c1.4,1.4,5.6,6.1,9.3,10.2c2.8,3.1,5.4,6,6.1,6.8c0.2,0.2,0.3,0.2,0.3,0.2c0,0,0.1-0.1,0.1-0.1l0.1-0.2c0.1-0.1,5.3-5.7,9.6-10.5
			c2.5-2.8,5-5.5,5.9-6.5c2.1-2.5,2.1-3.6,2.1-3.6c0-0.2-0.3-16-0.2-20.3c0.1-2-1.2-3.2-1.2-3.3c0,0-7.7-9.3-16-19.3
			c-0.1-0.1-0.1-0.2-0.2-0.3c-0.1,0.1-0.1,0.2-0.2,0.3c-5,6-9.7,11.7-12.7,15.3C55,55.6,53.6,56.8,53.5,56.8
			C53.5,56.8,53.5,56.8,53.5,56.8z"/>
	</g>
	<linearGradient id="SVGID_77_" gradientUnits="userSpaceOnUse" x1="73.0564" y1="65.4852" x2="55.2758" y2="89.1003">
		<stop  offset="6.060610e-02" style="stop-color:#9C0091"/>
		<stop  offset="0.903" style="stop-color:#D100DB"/>
	</linearGradient>
	<path class="st87" d="M79.5,89.9c-4.2,4.6-8.7,9.5-8.7,9.5s-1.1,0.7-1.7,0c-1.5-1.8-12-13.1-14.1-15.7c-1.9-2.2-1.9-3.3-1.9-3.3
		s0-15.5,0-19.6c0-2.5,1.3-3.4,1.3-3.4s1.2-1.4,3.2-3.8L79.5,89.9z"/>
	<linearGradient id="SVGID_78_" gradientUnits="userSpaceOnUse" x1="65.9906" y1="76.7928" x2="75.3352" y2="62.7759">
		<stop  offset="4.242420e-02" style="stop-color:#570A66"/>
		<stop  offset="1" style="stop-color:#961E91"/>
	</linearGradient>
	<path class="st88" d="M85.1,83.8c-0.8,0.9-3.1,3.4-5.5,6.1L57.4,53.7c2.9-3.4,7-8,11.5-13.8c0.4-0.5,1.5-0.9,2.2,0
		c7.9,9.5,14.5,17.5,14.5,17.5s1.3,1.2,1.3,3.4c-0.1,4.1,0.2,19.1,0.2,19.1S87.3,81.2,85.1,83.8z"/>
</g>
<g>
	<linearGradient id="SVGID_79_" gradientUnits="userSpaceOnUse" x1="175.0901" y1="70.8797" x2="245.101" y2="70.8797">
		<stop  offset="0" style="stop-color:#006837"/>
		<stop  offset="0.8303" style="stop-color:#39B54A"/>
	</linearGradient>
	<path class="st89" d="M244.5,90.1l-33.7-19l-0.1,0.1l-0.1-0.1l-34.1,20.5c-1.5-2.6-1.3-4.1-1.3-4.1s0-24.8,0-32.3
		c0-1.9,0.4-3.5,0.8-4.7l25.8,13.1l9.7,3.7l32.7-17c0.5,1.3,1,3,1,5c0,7.5,0,32.3,0,32.3S245.1,88.5,244.5,90.1z"/>
	<polygon class="st1" points="210.6,71.2 176.4,91.6 210.5,71.2 	"/>
	<linearGradient id="SVGID_80_" gradientUnits="userSpaceOnUse" x1="212.8674" y1="97.5196" x2="174.2007" y2="126.0197">
		<stop  offset="0" style="stop-color:#006837"/>
		<stop  offset="0.8303" style="stop-color:#00FF00"/>
	</linearGradient>
	<path class="st90" d="M228.8,81.2l-18,46.1c-0.1,0-0.1,0-0.2,0c-0.2,0-0.3,0-0.5,0v-56l0.4-0.3l0.1,0.1L228.8,81.2z"/>
	<linearGradient id="SVGID_81_" gradientUnits="userSpaceOnUse" x1="176.3901" y1="99.3549" x2="210.1001" y2="99.3549">
		<stop  offset="0" style="stop-color:#39B54A"/>
		<stop  offset="0.8303" style="stop-color:#009245"/>
	</linearGradient>
	<path class="st91" d="M210.1,71.4v56c-0.2,0-0.4,0-0.5,0c-1.9-0.3-4.1-2.8-4.1-2.8s-21.8-24.7-26.2-29.2c-1.3-1.4-2.2-2.8-2.9-3.8
		h0L210.1,71.4z"/>
	<linearGradient id="SVGID_82_" gradientUnits="userSpaceOnUse" x1="210.1001" y1="39.9149" x2="226.9106" y2="39.9149">
		<stop  offset="0" style="stop-color:#003B14"/>
		<stop  offset="1" style="stop-color:#178A1C"/>
	</linearGradient>
	<path class="st92" d="M226.9,59.1l-15.5,8.1l-1.3-0.5v-54c1.2,0,2.5,0.4,3.2,1.2c0.9,1,1.8,2,2.7,2.9L226.9,59.1z"/>
	<linearGradient id="SVGID_83_" gradientUnits="userSpaceOnUse" x1="197.1993" y1="11.0181" x2="191.8754" y2="52.8496">
		<stop  offset="0" style="stop-color:#004D14"/>
		<stop  offset="0.8303" style="stop-color:#009245"/>
	</linearGradient>
	<path class="st93" d="M210.1,12.7l0,24.4L176.9,51l-1-0.5c0.8-2.2,2-3.3,2-3.3s13-15.9,29-33.3C207.7,13,208.9,12.7,210.1,12.7z"/>
	<linearGradient id="SVGID_84_" gradientUnits="userSpaceOnUse" x1="204.7962" y1="58.3505" x2="204.0824" y2="63.959">
		<stop  offset="0" style="stop-color:#8F008F"/>
		<stop  offset="0.8303" style="stop-color:#FF1E91"/>
	</linearGradient>
	<polygon class="st94" points="209.6,64.5 210.1,58.4 210.1,66.7 201.8,63.5 198,61.6 	"/>
	<linearGradient id="SVGID_85_" gradientUnits="userSpaceOnUse" x1="215.9497" y1="37.9344" x2="244.1294" y2="37.9344">
		<stop  offset="0" style="stop-color:#003B14"/>
		<stop  offset="1" style="stop-color:#178A1C"/>
	</linearGradient>
	<path class="st95" d="M244.1,50.1l-17.2,9l-11-42.3c14.8,16.2,26.3,30.4,26.3,30.4S243.3,48.2,244.1,50.1z"/>
	<linearGradient id="SVGID_86_" gradientUnits="userSpaceOnUse" x1="221.09" y1="102.6526" x2="277.0894" y2="60.6531">
		<stop  offset="0" style="stop-color:#004D14"/>
		<stop  offset="0.8303" style="stop-color:#009245"/>
	</linearGradient>
	<path class="st96" d="M244.6,89.9c0,0-0.9,2.3-3.9,5.4c-4.4,4.6-26.1,29.2-26.1,29.2s-2,2.3-3.8,2.8l17-46.9L244.6,89.9z"/>
	<linearGradient id="SVGID_87_" gradientUnits="userSpaceOnUse" x1="196.1569" y1="35.0798" x2="192.6866" y2="62.3472">
		<stop  offset="0" style="stop-color:#003B14"/>
		<stop  offset="1" style="stop-color:#178A1C"/>
	</linearGradient>
	<polygon class="st97" points="210.1,36.9 210.1,58.4 209.6,64.5 198,61.6 176.9,51 	"/>
	<linearGradient id="SVGID_88_" gradientUnits="userSpaceOnUse" x1="175.9546" y1="55.6458" x2="191.8501" y2="55.6458">
		<stop  offset="0" style="stop-color:#003B14"/>
		<stop  offset="1" style="stop-color:#178A1C"/>
	</linearGradient>
	<path class="st98" d="M176,50.4c1.3,0.5,15.9,7.8,15.9,7.8l-0.4,2.6L176,50.4z"/>
	<linearGradient id="SVGID_89_" gradientUnits="userSpaceOnUse" x1="176.4341" y1="86.0628" x2="191.8501" y2="86.0628">
		<stop  offset="0" style="stop-color:#003B14"/>
		<stop  offset="1" style="stop-color:#178A1C"/>
	</linearGradient>
	<path class="st99" d="M176.4,91.6c1.3-0.5,15.4-8.5,15.4-8.5l-0.4-2.6L176.4,91.6z"/>
	<linearGradient id="SVGID_90_" gradientUnits="userSpaceOnUse" x1="248.6821" y1="41.4953" x2="235.8491" y2="53.8283">
		<stop  offset="0" style="stop-color:#003B14"/>
		<stop  offset="1" style="stop-color:#178A1C"/>
	</linearGradient>
	<path class="st100" d="M244.1,50.1c-1.3,0.5-16.5,7.4-16.5,7.4l1,2.4L244.1,50.1z"/>
	<linearGradient id="SVGID_91_" gradientUnits="userSpaceOnUse" x1="210.0999" y1="101.6671" x2="210.2669" y2="125.3339">
		<stop  offset="0" style="stop-color:#003B14"/>
		<stop  offset="1" style="stop-color:#178A1C"/>
	</linearGradient>
	<path class="st101" d="M210.1,127.2c0.2-1.4,1-25.6,1-25.6l-2,0.1L210.1,127.2z"/>
	<linearGradient id="SVGID_92_" gradientUnits="userSpaceOnUse" x1="228.2251" y1="84.6951" x2="244.5845" y2="84.6951">
		<stop  offset="0" style="stop-color:#003B14"/>
		<stop  offset="1" style="stop-color:#178A1C"/>
	</linearGradient>
	<path class="st102" d="M244.6,89.9c-1.3-0.5-16.4-7.8-16.4-7.8l0.4-2.6L244.6,89.9z"/>
	<linearGradient id="SVGID_93_" gradientUnits="userSpaceOnUse" x1="210.1001" y1="13.3338" x2="210.1001" y2="36.8391">
		<stop  offset="0" style="stop-color:#003B14"/>
		<stop  offset="1" style="stop-color:#178A1C"/>
	</linearGradient>
	<path class="st103" d="M210.1,12.7c0.2,1.4,1,24.8,1,24.8l-2-0.1L210.1,12.7z"/>
	<g>
		<path class="st42" d="M228.3,80.7c0,0-0.3-15.9-0.2-20.3c0.1-2.3-1.4-3.6-1.4-3.6s-7.7-9.2-16-19.3c-0.8-0.9-0.5-0.9-1.2,0
			c-5,6-9.7,11.7-12.7,15.3c-2.1,2.5-3.5,3.6-3.5,3.6s-1.8,1.8-1.8,4.9c0,4.3,0.1,19.8,0.1,19.8s-0.1,1.2,2.3,3.5
			c2.5,2.5,13.6,15.2,15.4,17c0.9,0.9,1.2-0.1,1.2-0.1s5.2-5.6,9.6-10.5c2.6-2.9,5-5.5,5.9-6.5C228.4,81.9,228.3,80.7,228.3,80.7z"
			/>
		<path class="st42" d="M210,103.2l-0.3-0.2c-0.3,0-0.4-0.7-0.7-1.1c-0.8-0.8-3.3-3.6-6.2-6.8c-3.7-4.1-7.8-8.3-9.2-9.7
			c-2.4-2.4-2.5-4.2-2.5-4.4c0-0.1-0.1-15.5-0.1-19.8c0-3.3,1.9-5.2,2-5.2c0.1,0,1.8-2,3.8-4.4c3-3.6,7.5-8.8,12.5-14.8
			c0.1-0.1,0.1,0,0.1-0.1c0.2-0.3,0.4-0.4,0.8-0.4c0.3,0,0.7,0.4,1,0.7c0.1,0.1,0.2,0.2,0.3,0.3c8.3,10.1,16.8,19.5,16.8,19.5
			c1.3,1,1,0.5,0.9,3c-0.1,4.3,0.3,20.9,0.3,21.1c0,0.2,0.4,0.6-2,3.3c-0.9,1-4.4,4.4-6.9,7.2c-4.1,4.5-8.9,9.7-9.5,10.4
			C210.8,102.2,210.5,103.2,210,103.2z M193.6,56.8c0,0-1.6,1.7-1.6,4.5c0,4.3,0.1,19.7,0.1,19.8c0,0,0.1,1.1,2.2,3.2
			c1.4,1.4,5.6,6.1,9.3,10.2c2.8,3.1,5.4,6,6.1,6.8c0.2,0.2,0.3,0.2,0.3,0.2c0,0,0.1-0.1,0.1-0.1l0.1-0.2c0.1-0.1,5.3-5.7,9.6-10.5
			c2.5-2.8,5-5.5,5.9-6.5c2.1-2.5,2.1-3.6,2.1-3.6c0-0.2-0.3-16-0.2-20.3c0.1-2-1.2-3.2-1.2-3.3c0,0-7.7-9.3-16-19.3
			c-0.1-0.1-0.1-0.2-0.2-0.3c-0.1,0.1-0.1,0.2-0.2,0.3c-5,6-9.7,11.7-12.7,15.3C195.1,55.6,193.7,56.8,193.6,56.8
			C193.6,56.8,193.6,56.8,193.6,56.8z"/>
	</g>
	<linearGradient id="SVGID_94_" gradientUnits="userSpaceOnUse" x1="213.154" y1="65.4852" x2="195.3734" y2="89.1003">
		<stop  offset="0" style="stop-color:#003B14"/>
		<stop  offset="1" style="stop-color:#178A1C"/>
	</linearGradient>
	<path class="st104" d="M219.6,89.9c-4.2,4.6-8.7,9.5-8.7,9.5s-1.1,0.7-1.7,0c-1.5-1.8-12-13.1-14.1-15.7c-1.9-2.2-1.9-3.3-1.9-3.3
		s0-15.5,0-19.6c0-2.5,1.3-3.4,1.3-3.4s1.2-1.4,3.2-3.8L219.6,89.9z"/>
	<linearGradient id="SVGID_95_" gradientUnits="userSpaceOnUse" x1="206.088" y1="76.7928" x2="215.4326" y2="62.776">
		<stop  offset="0" style="stop-color:#003B14"/>
		<stop  offset="1" style="stop-color:#178A1C"/>
	</linearGradient>
	<path class="st105" d="M225.2,83.8c-0.8,0.9-3.1,3.4-5.5,6.1l-22.1-36.2c2.9-3.4,7-8,11.5-13.8c0.4-0.5,1.5-0.9,2.2,0
		c7.9,9.5,14.5,17.5,14.5,17.5s1.3,1.2,1.3,3.4c-0.1,4.1,0.2,19.1,0.2,19.1S227.4,81.2,225.2,83.8z"/>
</g>
<g>
	<linearGradient id="SVGID_96_" gradientUnits="userSpaceOnUse" x1="455.0901" y1="70.8797" x2="525.101" y2="70.8797">
		<stop  offset="0" style="stop-color:#290000"/>
		<stop  offset="0.5758" style="stop-color:#750000"/>
	</linearGradient>
	<path class="st106" d="M524.5,90.1l-33.7-19l-0.1,0.1l-0.1-0.1l-34.1,20.5c-1.5-2.6-1.3-4.1-1.3-4.1s0-24.8,0-32.3
		c0-1.9,0.4-3.5,0.8-4.7l25.8,13.1l9.7,3.7l32.7-17c0.5,1.3,1,3,1,5c0,7.5,0,32.3,0,32.3S525.1,88.5,524.5,90.1z"/>
	<polygon class="st1" points="490.6,71.2 456.4,91.6 490.5,71.2 	"/>
	<linearGradient id="SVGID_97_" gradientUnits="userSpaceOnUse" x1="492.8674" y1="97.5196" x2="454.2007" y2="126.0198">
		<stop  offset="0" style="stop-color:#780B00"/>
		<stop  offset="0.8303" style="stop-color:#E8054F"/>
	</linearGradient>
	<path class="st107" d="M508.8,81.2l-18,46.1c-0.1,0-0.1,0-0.2,0c-0.2,0-0.3,0-0.5,0v-56l0.4-0.3l0.1,0.1L508.8,81.2z"/>
	<linearGradient id="SVGID_98_" gradientUnits="userSpaceOnUse" x1="456.3901" y1="99.3549" x2="490.1001" y2="99.3549">
		<stop  offset="0" style="stop-color:#290000"/>
		<stop  offset="0.5758" style="stop-color:#750000"/>
	</linearGradient>
	<path class="st108" d="M490.1,71.4v56c-0.2,0-0.4,0-0.5,0c-1.9-0.3-4.1-2.8-4.1-2.8s-21.8-24.7-26.2-29.3c-1.3-1.4-2.2-2.8-2.9-3.8
		h0L490.1,71.4z"/>
	<linearGradient id="SVGID_99_" gradientUnits="userSpaceOnUse" x1="490.1001" y1="39.9148" x2="506.9106" y2="39.9148">
		<stop  offset="0" style="stop-color:#780B00"/>
		<stop  offset="0.8303" style="stop-color:#E8054F"/>
	</linearGradient>
	<path class="st109" d="M506.9,59.1l-15.5,8.1l-1.3-0.5v-54c1.2,0,2.5,0.4,3.2,1.2c0.9,1,1.8,2,2.7,2.9L506.9,59.1z"/>
	<linearGradient id="SVGID_100_" gradientUnits="userSpaceOnUse" x1="477.1993" y1="11.0181" x2="471.8755" y2="52.8496">
		<stop  offset="0" style="stop-color:#290000"/>
		<stop  offset="0.5758" style="stop-color:#750000"/>
	</linearGradient>
	<path class="st110" d="M490.1,12.7l0,24.4l-33.2,13.8l-1-0.5c0.8-2.2,2-3.3,2-3.3s13-15.9,29-33.3C487.7,13,488.9,12.7,490.1,12.7z
		"/>
	<linearGradient id="SVGID_101_" gradientUnits="userSpaceOnUse" x1="484.7964" y1="58.3496" x2="484.0825" y2="63.9588">
		<stop  offset="0" style="stop-color:#8F008F"/>
		<stop  offset="0.8303" style="stop-color:#FF1E91"/>
	</linearGradient>
	<polygon class="st111" points="489.6,64.5 490.1,58.4 490.1,66.7 481.8,63.5 478,61.6 	"/>
	<linearGradient id="SVGID_102_" gradientUnits="userSpaceOnUse" x1="495.9497" y1="37.9353" x2="524.1294" y2="37.9353">
		<stop  offset="0" style="stop-color:#780B00"/>
		<stop  offset="0.8303" style="stop-color:#E8054F"/>
	</linearGradient>
	<path class="st112" d="M524.1,50.1l-17.2,9l-11-42.3c14.8,16.2,26.3,30.4,26.3,30.4S523.3,48.1,524.1,50.1z"/>
	<linearGradient id="SVGID_103_" gradientUnits="userSpaceOnUse" x1="501.09" y1="102.6526" x2="557.0894" y2="60.653">
		<stop  offset="0" style="stop-color:#290000"/>
		<stop  offset="0.5758" style="stop-color:#750000"/>
	</linearGradient>
	<path class="st113" d="M524.6,89.9c0,0-0.9,2.3-3.9,5.4c-4.4,4.6-26.1,29.2-26.1,29.2s-2,2.3-3.8,2.8l17-46.9L524.6,89.9z"/>
	<linearGradient id="SVGID_104_" gradientUnits="userSpaceOnUse" x1="476.1569" y1="35.0798" x2="472.6866" y2="62.3472">
		<stop  offset="0" style="stop-color:#780B00"/>
		<stop  offset="0.8303" style="stop-color:#E8054F"/>
	</linearGradient>
	<polygon class="st114" points="490.1,36.9 490.1,58.4 489.6,64.5 478,61.6 456.9,50.9 	"/>
	<path class="st120" d="M456,50.4c1.3,0.5,15.9,7.8,15.9,7.8l-0.4,2.6L456,50.4z"/>
	<path class="st120" d="M456.4,91.6c1.3-0.5,15.4-8.5,15.4-8.5l-0.4-2.6L456.4,91.6z"/>
	<path class="st120" d="M524.1,50.1c-1.3,0.5-16.5,7.4-16.5,7.4l1,2.4L524.1,50.1z"/>
	<path class="st120" d="M490.1,127.2c0.2-1.4,1-25.6,1-25.6l-2,0.1L490.1,127.2z"/>
	<path class="st120" d="M524.6,89.9c-1.3-0.5-16.4-7.8-16.4-7.8l0.4-2.6L524.6,89.9z"/>
	<path class="st120" d="M490.1,12.7c0.2,1.4,1,24.8,1,24.8l-2-0.1L490.1,12.7z"/>
	<g>
		<linearGradient id="SVGID_105_" gradientUnits="userSpaceOnUse" x1="477.9826" y1="88.1193" x2="491.7307" y2="67.4972">
			<stop  offset="6.060610e-02" style="stop-color:#FF7AF5"/>
			<stop  offset="0.903" style="stop-color:#FF9CDB"/>
		</linearGradient>
		<path class="st115" d="M508.3,80.7c0,0-0.3-15.9-0.2-20.3c0.1-2.3-1.4-3.6-1.4-3.6s-7.7-9.2-16-19.3c-0.8-0.9-0.5-0.9-1.2,0
			c-5,6-9.7,11.7-12.7,15.3c-2.1,2.5-3.5,3.6-3.5,3.6s-1.8,1.8-1.8,4.9c0,4.3,0.1,19.8,0.1,19.8s-0.1,1.2,2.3,3.5
			c2.5,2.5,13.6,15.2,15.4,17c0.9,0.9,1.2-0.1,1.2-0.1s5.2-5.6,9.6-10.5c2.6-2.9,5-5.5,5.9-6.5C508.4,81.9,508.3,80.7,508.3,80.7z"
			/>
		<path class="st123" d="M490,103.2l-0.3-0.2c-0.3,0-0.4-0.7-0.7-1.1c-0.8-0.8-3.3-3.6-6.2-6.8c-3.7-4.1-7.8-8.3-9.2-9.7
			c-2.4-2.4-2.5-4.2-2.5-4.4c0-0.1-0.1-15.5-0.1-19.8c0-3.3,1.9-5.2,2-5.2c0.1,0,1.8-2,3.8-4.4c3-3.6,7.5-8.8,12.5-14.8
			c0.1-0.1,0.1,0,0.1-0.1c0.2-0.3,0.4-0.4,0.8-0.4c0.3,0,0.7,0.4,1,0.7c0.1,0.1,0.2,0.2,0.3,0.3c8.3,10.1,16.8,19.5,16.8,19.5
			c1.3,1,1,0.5,0.9,3c-0.1,4.3,0.3,20.9,0.3,21.1c0,0.2,0.4,0.6-2,3.3c-0.9,1-4.4,4.4-6.9,7.2c-4.1,4.5-8.9,9.7-9.5,10.4
			C490.8,102.2,490.5,103.2,490,103.2z M473.6,56.8c0,0-1.6,1.7-1.6,4.5c0,4.3,0.1,19.7,0.1,19.8c0,0,0.1,1.1,2.2,3.2
			c1.4,1.4,5.6,6.1,9.3,10.2c2.8,3.1,5.4,6,6.1,6.8c0.2,0.2,0.3,0.2,0.3,0.2c0,0,0.1-0.1,0.1-0.1l0.1-0.2c0.1-0.1,5.3-5.7,9.6-10.5
			c2.5-2.8,5-5.5,5.9-6.5c2.1-2.5,2.1-3.6,2.1-3.6c0-0.2-0.3-16-0.2-20.3c0.1-2-1.2-3.2-1.2-3.3c0,0-7.7-9.3-16-19.3
			c-0.1-0.1-0.1-0.2-0.2-0.3c-0.1,0.1-0.1,0.2-0.2,0.3c-5,6-9.7,11.7-12.7,15.3C475.1,55.6,473.7,56.8,473.6,56.8L473.6,56.8z"/>
	</g>
	<linearGradient id="SVGID_106_" gradientUnits="userSpaceOnUse" x1="493.1539" y1="65.4852" x2="475.3734" y2="89.1002">
		<stop  offset="0" style="stop-color:#290000"/>
		<stop  offset="0.5758" style="stop-color:#750000"/>
	</linearGradient>
	<path class="st116" d="M499.6,89.9c-4.2,4.6-8.7,9.5-8.7,9.5s-1.1,0.7-1.7,0c-1.5-1.8-12-13.1-14.1-15.7c-1.9-2.2-1.9-3.3-1.9-3.3
		s0-15.5,0-19.6c0-2.5,1.3-3.4,1.3-3.4s1.2-1.4,3.2-3.8L499.6,89.9z"/>
	<linearGradient id="SVGID_107_" gradientUnits="userSpaceOnUse" x1="486.0881" y1="76.7928" x2="495.4327" y2="62.7758">
		<stop  offset="0" style="stop-color:#290000"/>
		<stop  offset="0.5758" style="stop-color:#750000"/>
	</linearGradient>
	<path class="st117" d="M505.2,83.8c-0.8,0.9-3.1,3.4-5.5,6.1l-22.1-36.2c2.9-3.4,7-8,11.5-13.8c0.4-0.5,1.5-0.8,2.2,0
		c7.9,9.5,14.5,17.5,14.5,17.5s1.3,1.2,1.3,3.4c-0.1,4.1,0.2,19.1,0.2,19.1S507.4,81.2,505.2,83.8z"/>
</g>
</svg>
